<svg width="700" height="700" viewBox="0 0 700 700" fill="none" xmlns="http://www.w3.org/2000/svg">

<style>
@keyframes rotate {
    0% {
      transform: rotate(0);
    }
    100% {
      transform: rotate(360deg);
    }
  }

  .rotate-animation {
    animation: rotate 6s infinite linear;
    transform-origin: 50% 50%;
  }
   .rotate-animation-center {
    animation: rotate 6s infinite linear;
    transform-origin: 50% 50%;
  }
</style>

<g class="rotate-animation-center"><path d="M447.679 349.455C449.354 341.045 446.804 331.836 437.557 325.938C420.7 315.207 396.308 304.781 374.047 305.237C357.685 301.775 341.208 302.193 327.433 309.575C296.572 326.052 289.304 363.686 297.789 395.08C301.823 409.921 308.673 429.86 319.556 441.2C332.684 454.899 354.983 456.497 372.944 456.535C402.625 456.649 425.228 442.684 435.997 418.597C436.082 418.559 436.159 418.508 436.226 418.444C462.748 400.141 462.596 371.678 447.679 349.417V349.455Z" fill="#D2DF6E"/>
<path d="M442.314 396.487C443.341 395.536 444.255 394.28 444.978 392.682C459.818 359.271 446.119 319.925 415.03 300.936C382.571 281.111 335.918 284.84 305.019 306.188C270.353 330.123 275.452 370.459 294.517 402.918C304.601 420.118 317.158 437.774 335.69 446.45C352.433 454.251 372.221 454.518 389.687 448.924C413.774 441.161 435.997 420.118 442.314 396.525V396.487ZM362.365 429.174C342.387 428.109 329.868 414.562 319.594 398.732C311.45 386.175 303.421 371.943 302.394 356.684C299.882 319.925 350.759 307.938 379.146 312.504C397.944 315.511 416.666 328.867 424.581 346.295C414.84 343.746 404.337 356.646 412.975 365.893C441.705 396.639 390.905 430.696 362.365 429.174Z" fill="#232905"/>
<path d="M441.363 140.734C450.229 132.134 440.83 119.5 431.127 120.832V120.528C430.708 108.465 422.336 101.083 412.823 98.8758C407.762 94.8041 401.065 92.7493 393.416 94.3094C369.747 99.066 362.86 130.954 382.457 144.958C391.057 151.084 401.598 151.997 410.692 148.991C421.385 151.16 433.105 148.763 441.325 140.81L441.363 140.734ZM596.999 306.454C597.037 306.149 597.113 305.883 597.189 305.579C598.977 293.364 593.764 282.975 585.545 274.984C583.186 269.885 580.027 265.167 576.298 260.943C575.886 259.952 575.441 258.975 574.966 258.013C567.774 243.514 554.227 233.887 537.827 234.039C531.358 234.077 524.775 238.758 523.329 245.227C522.72 247.967 522.339 250.745 522.073 253.522C521.883 254.245 521.768 255.006 521.654 255.729C521.502 257.099 521.388 258.545 521.312 259.991C513.283 263.797 508.031 271.407 508.868 284.497C510.391 308.394 535.353 322.702 559.25 327.954C561.61 328.715 564.045 329.285 566.595 329.59C567.85 329.742 569.068 329.78 570.286 329.78C575.309 330.313 580.103 330.427 584.365 330.085C597.341 329.095 601.565 314.978 596.961 306.454H596.999ZM529.493 482.867C528.732 482.296 527.933 481.915 527.096 481.649C519.675 458.589 483.487 456.686 476.942 483.323C475.8 488.093 475.839 493.07 477.056 497.821C474.811 504.861 475.877 512.662 481.927 518.826C492.658 529.748 515.337 531.003 528.009 523.164C543.192 513.727 543.306 493.179 529.493 482.867ZM345.622 596.568C345.051 594.019 344.328 591.545 343.491 589.11C351.672 587.512 357.951 576.857 350.226 569.284C340.903 560.114 328.727 550.715 314.989 550.715C313.581 550.715 312.212 550.829 310.842 551.057C308.406 549.801 305.895 548.66 303.307 547.67C292.31 543.561 284.623 544.664 277.051 554.063C270.468 562.245 268.946 572.1 270.772 582.222C272.522 591.812 282.53 592.725 288.771 588.235C289.837 592.306 291.777 596.188 294.631 599.574C305.134 612.132 322.067 614.605 337.25 610.99C343.605 609.468 347.03 602.733 345.66 596.606L345.622 596.568ZM159.772 389.523C161.066 387.278 161.713 384.538 161.218 381.418C160.99 379.934 160.685 378.488 160.343 377.004C160.038 373.617 159.163 370.23 157.489 366.996C157.299 366.653 157.07 366.311 156.88 365.968C151.933 353.982 143.333 343.555 130.7 339.293C116.202 334.423 97.9743 339.293 89.4505 352.536C71.2993 380.809 112.777 420.194 141.278 412.507C152.162 409.577 158.592 399.95 159.772 389.485V389.523ZM276.099 208.43C276.518 208.354 276.937 208.354 277.355 208.278C283.444 207.288 287.515 199.525 285.765 193.894C282.797 184.342 275.186 171.861 265.445 162.728C258.291 144.729 241.586 133.009 221.76 132.705C216.965 132.629 211.181 136.472 210.382 141.495C208.137 155.613 211.334 169.159 218.145 180.385C218.792 181.641 219.553 182.858 220.39 184.114C219.895 185.027 219.439 185.979 219.02 187.006C205.283 220.835 245.886 242.563 272.827 225.706C279.638 221.444 279.562 213.681 276.061 208.506L276.099 208.43ZM240.292 201.771C244.82 204.51 249.348 206.641 253.382 208.049C247.56 209.077 241.433 207.859 240.292 201.771Z" fill="#D2DF6E"/>
<path d="M590.948 352.916C607.159 327.839 621.086 295.951 612.258 265.623C604.99 240.66 581.74 218.209 554.494 219.237C491.973 221.672 484.02 322.131 533.755 348.312C545.019 354.248 558.261 355.161 570.172 351.813C574.015 358.662 585.317 361.592 590.948 352.878V352.916ZM532.613 316.043C520.322 297.093 521.578 266.765 538.245 250.63C556.206 233.24 580.75 248.537 588.475 268.363C593.46 281.225 592.014 294.848 587.6 307.862C583.718 308.432 580.141 310.944 578.695 315.853C572.112 338.19 542.583 331.378 532.613 316.043ZM543.23 521.033C544.904 517.685 544.904 514.412 543.839 511.558C551.83 496.87 551.069 476.93 538.93 462.432C518.534 438.002 479.91 438.801 458.41 461.443C437.291 483.704 441.363 521.11 465.26 539.755C490.337 559.277 529.303 549.193 543.192 521.033H543.23ZM471.31 483.209C478.693 469.929 497.376 463.65 511.228 470.005C519.409 473.772 527.02 482.714 526.411 492.189C525.802 501.17 518.344 507.905 509.515 507.563C498.594 507.144 495.246 519.245 499.888 526.247C494.028 527.236 487.901 526.361 482.308 523.088C469.256 515.44 463.928 496.413 471.272 483.209H471.31ZM348.324 603.38C369.595 581.271 372.487 543.218 349.77 520.729C328.27 499.458 289.684 499.115 269.25 521.985C249.729 543.827 252.012 581.461 275.415 599.613C291.929 612.436 314.723 612.665 332.303 603.189C336.413 607.375 343.11 608.821 348.362 603.38H348.324ZM289.837 581.233C276.518 571.035 276.252 548.355 287.629 536.711C299.692 524.382 322.524 525.828 333.94 538.271C341.056 546.034 343.301 556.651 341.626 566.697C337.973 566.545 334.244 568.143 331.809 572.291C323.665 586.066 303.041 591.393 289.837 581.233ZM154.977 425.863C172.139 414.676 183.251 396.068 185.458 376.205C186.828 372.78 188.007 369.393 189.035 366.121C190.861 360.108 188.083 355.504 183.898 353.106C183.441 351.318 182.908 349.529 182.261 347.779C176.858 332.558 164.947 318.288 148.394 315.358C131.156 312.276 115.897 323.235 106.194 336.553C87.4337 362.315 86.939 406.723 121.795 419.471C128.226 421.83 134.239 422.515 139.794 421.906C142.686 426.967 148.699 429.935 154.977 425.825V425.863ZM132.831 398.351C110.57 394.508 115.402 364.979 124.231 351.737C129.52 343.822 138.462 334.841 148.585 340.092C156.233 344.088 160.533 354.248 161.827 362.315C162.284 365.283 162.436 368.29 162.284 371.258C156.766 385.033 147.367 400.825 132.831 398.313V398.351ZM317.349 178.254C319.632 165.925 304.297 159.189 297.561 165.963C288.543 143.664 265.863 124.523 241.091 128.747C210.877 133.922 204.027 176.922 205.207 202.037C206.539 230.805 226.631 259.306 258.177 255.615C297.219 251.049 311.222 211.55 317.387 178.216L317.349 178.254ZM232.072 173.421C234.888 161.358 238.77 148.154 254.067 152.987C263.694 156.031 271.229 164.288 275.186 173.383C285.004 195.796 271.647 218.856 253.915 232.517C225.033 234.686 227.772 191.839 232.072 173.459V173.421ZM440.107 180.461C440.678 180.004 441.173 179.51 441.705 179.053C459.704 168.436 471.767 147.431 471.006 125.969C470.663 116.456 461.188 112.689 454.377 114.972C450.419 106.296 444.103 98.6855 435.236 93.4342C410.35 78.5936 375.303 93.32 366.018 120.147C355.668 150.133 380.288 182.364 410.54 185.826C418.265 186.702 425.647 185.712 432.496 183.315C435.046 183.315 437.672 182.44 440.107 180.461ZM417.237 162.69C400.875 163.413 383.218 146.213 387.823 129.318C391.323 116.456 408.485 106.867 421.119 112.461C440.411 121.022 439.042 146.86 426.903 160.521C423.935 161.777 420.7 162.576 417.237 162.728V162.69Z" fill="#232905"/>
</g>
</svg>
