<svg width="700" height="700" viewBox="0 0 700 700" fill="none" xmlns="http://www.w3.org/2000/svg">
<g clip-path="url(#clip0_702_592)">
<path d="M0 0H700V700H0V0Z" fill="#FBF8CB"/>
<g id="being-at-peace-content">
    <animateTransform attributeName="transform" type="translate" values="0 0; 0 -15; 0 0" dur="8s" repeatCount="indefinite" />
    <path d="M190.475 215.734C175.634 212.506 177.594 212.572 166.239 201.388C165.522 200.681 161.441 196.743 160.634 196.271L160.726 196.761C160.946 197.966 161.18 198.573 160.831 199.734C160.242 200.032 160.271 200.155 159.788 199.884C156.68 198.138 152.902 194.192 150.201 191.861C131.413 175.653 112.119 159.773 96.2282 140.619C93.5304 137.368 89.2032 132.912 87.7048 129.021C85.6854 123.778 87.3821 115.035 89.8386 110.148C102.044 85.8663 132.991 66.1771 158.021 57.2576C172.162 52.2181 191.57 48.9738 205.617 55.4003C207.392 56.2127 209.119 57.2706 210.142 58.9386C212.759 63.2014 214.862 68.6647 216.933 73.3009C224.837 90.6481 231.859 108.384 237.972 126.44C239.482 130.916 246.924 152.832 245.915 155.867C244.477 156.207 242.941 154.892 241.764 154.099C243.509 158.367 251.953 175.973 252.144 179.363C252.312 182.33 251.185 185.734 250.544 188.627L250.864 188.999C263.654 203.743 279.754 212.601 277.722 235.644C274.901 267.643 241.769 281.38 235.365 311.241C232.006 326.581 231.739 341.779 228.66 357.079C227.002 364.691 220.744 373.291 213.026 364.37C207.154 355.51 208.557 326.139 210.533 316.189C210.677 315.446 210.854 314.71 211.063 313.983L209.847 313.816C204.245 330.735 200.203 348.114 195.74 365.364C194.115 371.646 191.738 384.04 182.56 381.422C179.564 380.386 178.539 377.392 177.88 374.606C174.248 359.263 175.265 343.465 178.774 328.206C179.801 323.741 181.346 319.077 182.166 314.614C179.27 317.418 176.679 320.053 173.432 322.503C171.173 324.208 165.578 325.767 164.18 327.822C157.805 337.191 152.065 347.642 147.218 357.899C145.36 361.833 143.74 365.292 140.958 368.584C137.469 373.034 131.157 374.883 126.962 370.392C122.714 365.843 127.468 353.186 128.967 348.175C134.237 330.907 141.563 314.335 150.787 298.815C154.021 293.422 157.339 288.89 160.592 283.725L160.193 284.064C145.145 296.98 131.377 318.791 119.568 334.881C115.542 340.366 110.583 348.186 102.7 348.001C98.6966 347.919 93.368 343.732 94.9334 339.278C108.677 300.17 136.027 266.54 165.259 237.741C173.901 229.228 181.119 223.344 190.475 215.734Z" fill="#0C551F"/>
    <path d="M209.846 313.815L211.849 308.883C211.633 310.473 211.421 312.452 211.063 313.982L209.846 313.815Z" fill="#0C551F"/>
    <path d="M225.804 171.385C229.535 171.002 234.062 171.367 237.83 171.645C240.694 177.391 243.003 183.504 246.95 188.632C257.002 201.692 273.047 210.594 274.3 228.668C276.368 258.478 251.81 271.813 238.74 294.345C235.051 300.705 232.907 307.664 231.438 314.833C229.503 324.27 228.212 357.786 222.696 363.576C221.816 364.499 220.537 365.223 219.226 365.127C217.887 365.032 216.826 364.143 216.01 363.148C209.601 355.352 211.897 324.57 213.82 314.731C214.451 311.389 215.212 308.073 216.103 304.79C216.954 301.67 218.018 298.135 218.568 294.95C218.708 294.141 218.664 294.346 218.149 293.741L217.411 293.809C206.893 301.015 198.664 346.52 194.522 359.238C193.045 363.774 190.774 378.051 185.194 379.015C184.391 379.148 183.569 378.916 182.954 378.382C180.889 376.602 180.158 369.978 179.665 367.161C175.713 344.616 183.033 321.391 190.58 300.377C191.682 297.308 195.816 288.359 195.765 285.732L195.312 285.356C194.377 285.354 193.956 285.43 193.081 285.113C192.558 281.954 193.201 273.814 193 269.726C217.411 265.745 238.222 251.147 249.725 228.922C250.433 227.555 252.635 223.402 251.745 222.154L250.986 222.108C249.019 223.332 247.141 227.28 246.051 229.393C238.005 244.997 221.882 257.859 205.486 263.777C200.669 265.516 195.202 266.279 190.084 267.586C190.054 269.556 190.202 271.999 190.274 274.001C190.237 288.473 187.305 304.527 177.02 315.399C174.276 318.3 169.034 323.213 164.758 322.961C163.908 322.911 163.229 322.56 162.758 321.829C160.694 318.618 163.637 291.699 164.108 286.275C165.335 272.137 168.288 255.679 175.949 243.567C179.843 237.41 184.746 232.241 189.632 226.902C198.528 217.183 207.074 209.276 217.096 200.761C218.009 199.985 218.953 199.244 219.052 197.991C217.894 197.182 218.497 197.334 217.252 197.304C208.746 201.658 184.112 227.513 177.644 235.887C173.117 241.627 171.15 245.773 168.254 252.568C164.917 260.401 163.779 270.545 161.339 278.309C161.076 279.144 153.871 286.082 152.806 287.206C148.601 291.674 144.548 296.283 140.655 301.026C134.096 309.282 127.813 317.755 121.818 326.43C116.865 333.457 112.039 343.188 103.36 345.29C100.867 344.705 96.4876 342.89 97.8121 339.419C116.668 290.023 154.022 248.508 194.985 216.117C192.167 210.75 184.075 201.024 179.952 195.909C181.088 193.757 182.173 192.079 183.794 190.269C195.99 176.647 208.208 172.626 225.804 171.385Z" fill="#FBF8CB"/>
    <path d="M217.66 146.433C221.81 146.088 227.584 146.724 231.57 147.984C239.593 150.519 242.13 163.367 245.603 170.68C237.222 167.246 221.635 168.145 212.795 169.959C199.052 172.778 185.704 181.072 178.114 193.1C175.878 197.06 175.503 200.674 174.842 205.085C169.325 200.487 164.195 194.672 158.732 190.468C161.771 167.33 181.702 157.064 201.629 149.647C206.731 147.749 212.255 146.884 217.66 146.433Z" fill="#FBF8CB"/>
    <path d="M160.297 290.502C161.404 292.261 158.803 312.563 158.984 316.198C159.215 320.835 159.091 321.714 161.82 325.827C157.371 332.792 153.165 339.908 149.207 347.163C145.656 353.817 140.428 369.769 132.317 370.121C129.552 369.537 128.481 368.193 128.398 365.37C128.255 360.513 129.946 354.939 131.418 350.321C137.595 330.955 147.3 306.22 160.297 290.502Z" fill="#FBF8CB"/>
    <path d="M178.786 199.858C181.393 202.479 186.807 209.09 188.577 212.394C184.82 212.186 181.787 211.044 178.537 209.28C178.479 206.119 178.405 202.998 178.786 199.858Z" fill="#FBF8CB"/>
    <path d="M241.544 172.658C244.786 173.848 246.087 174.691 248.75 176.847C249.113 180.061 249.008 181.857 248.515 184.996L248.175 184.971C246.394 183 242.546 175.3 241.544 172.658Z" fill="#FBF8CB"/>
    <path d="M513.625 51.7568C521.196 51.967 528.709 53.1196 535.992 55.1871C561.196 62.4042 595.602 83.6947 609.133 106.98C612.428 112.649 615.122 121.975 613.187 128.541C612.165 132.019 607.031 137.655 604.505 140.569C589.118 158.32 571.939 173.218 554.241 188.548C550.553 191.744 545.86 196.603 541.762 199.312C541.147 199.719 540.09 199.853 539.301 199.577C538.904 197.835 540.032 198.225 539.988 196.64C535.479 199.64 530.65 205.479 526.606 209.241C521.203 214.266 516.701 214.481 509.903 215.553C546.208 243.838 580.805 283.773 600.523 325.842C602.39 329.822 608.545 340.915 604.553 344.688C591.589 356.921 580.344 333.09 574.284 324.872C564.218 311.481 553.441 295.428 540.6 284.614C542.237 287.28 544.271 289.706 545.986 292.326C555.451 306.767 578.365 352.437 574.919 368.771C573.419 372.008 570.062 373.136 566.689 372.695C564.423 372.404 562.324 371.358 560.725 369.732C557.375 366.303 553.943 358.975 551.677 354.402C547.313 345.594 542.661 336.835 537.216 328.614C535.712 326.344 530.349 324.394 527.803 322.65C523.968 320.022 521.165 317.479 518.301 313.792C519.777 320.413 522.488 328.452 523.506 335.531C525.181 348.701 525.783 363.726 522.272 376.595C520.208 384.169 511.092 382.898 508.334 376.554C505.518 370.073 504.075 362.755 502.335 355.834C500.298 347.836 498.189 339.858 496.009 331.898C493.808 323.807 492.03 316.74 488.705 309.009C488.981 310.269 489.241 311.533 489.484 312.8C491.835 325.164 493.391 352.191 487.604 364.15C486.025 367.411 479.48 369.571 476.851 366.375C468.221 355.882 470.2 336.924 467.729 323.893C465.914 314.314 464.604 305.804 459.97 297.12C447.72 276.148 425.53 261.946 422.919 235.788C420.701 213.578 437.544 203.134 450.027 188.423C448.051 182.166 448.455 177.453 451.11 171.469C453.831 165.334 456.258 159.117 459.279 153.098L458.192 153.974C456.897 155.026 455.916 156.109 454.166 155.704C453.106 153.857 456.873 144.079 457.608 141.776C465.544 116.954 474.619 92.3931 485.526 68.7151C487.04 65.4256 488.893 60.9259 491.166 58.01C496.149 53.1052 507.141 52.1417 513.625 51.7568Z" fill="#0C551F"/>
    <path d="M467.12 171.365C477.606 170.321 496.484 173.939 505.227 180.127C510.87 184.123 518.766 189.79 520.358 196.867C517.822 199.89 506.697 213.422 505.018 216.369C501.648 213.056 485.792 196.656 481.906 197.83C481.335 200.87 489.726 205.733 492.143 208.003C510.778 225.51 531.207 244.509 534.577 271.335C535.667 280.01 541.252 317.033 537.335 322.694C533.729 324.463 526.712 318.539 524.306 316.018C511.615 302.721 510.238 284.618 510.439 267.38C506.15 266.593 501.799 265.872 497.66 264.615C481.424 259.68 466.214 247.86 457.03 233.638C455.455 231.198 451.626 222.906 449.227 222.14L448.653 222.45C448.26 225.431 453.072 233.284 454.699 235.777C466.204 253.105 484.111 265.158 504.496 269.291L507.244 269.682L507.565 270.195C507.538 272.654 508.081 283.777 507.083 285.243C506.181 285.388 505.846 285.466 504.967 285.728C504.68 286.22 504.366 286.576 504.629 287.204C515.836 313.719 526.142 342.306 520.372 371.489C520.095 373.492 519.623 377.375 517.569 378.397C510.306 382.016 507.291 363.587 506.023 359.304C499.768 338.219 496.969 315.026 485.457 295.981C484.904 295.067 483.943 293.922 482.843 293.736C481.486 294.758 482.21 296.884 482.648 298.355C488.352 317.449 491.743 342.368 485.652 361.635C483.936 367.063 477.709 365.754 475.785 358.911C470.675 340.731 472.681 320.435 465.941 302.865C456.466 278.689 431.484 265.953 426.47 239.18C421.849 214.511 439.824 206.603 451.948 190.866C454.313 187.811 456.384 184.541 458.138 181.099C459.525 178.38 460.865 175.421 462.519 172.863C463.418 171.473 465.418 171.549 467.12 171.365Z" fill="#FBF8CB"/>
    <path d="M505.477 216.933C506.563 217.181 507.5 217.85 508.402 218.481C529.498 233.234 558.845 264.93 573.716 285.861C582.142 297.718 589.542 310.27 595.841 323.381C597.963 327.772 605.23 339.282 601.925 343.718C599.802 344.634 599.061 344.805 596.832 345.321C588.704 342.833 585.139 335.704 580.634 329.065C576.912 323.47 573.053 317.965 569.068 312.554C562.102 303.198 554.61 294.249 546.622 285.749C544.117 283.086 541.386 280.805 538.863 278.085C537.93 273.765 537.465 269.683 536.354 265.087C531.125 243.52 520.84 231.744 505.477 216.933Z" fill="#FBF8CB"/>
    <path d="M478.078 146.425C486.592 145.645 494.385 147.878 502.178 150.926C521.521 158.493 538.132 167.736 541.574 189.905C538.231 194.438 529.949 201.779 525.465 205.438C525.239 202.98 524.822 200.729 524.402 198.301C520.143 183.143 501.741 172.974 487.426 169.88C478.017 167.846 464.143 167.683 454.836 170.383C461.604 155.996 459.833 148.01 478.078 146.425Z" fill="#FBF8CB"/>
    <path d="M539.68 289.704C543.741 292.958 549.791 304.819 552.549 309.736C560.427 323.775 566.238 339.268 570.592 354.737C571.57 358.217 572.735 362.055 572.756 365.661C572.756 367.363 571.091 368.782 569.875 369.773C568.565 370.108 566.457 370.35 565.329 369.653C561.066 367.021 557.672 359.488 555.611 355.352C550.409 344.928 545.173 335.559 538.792 325.905C540.859 322.562 541.745 319.848 541.693 315.89C541.581 307.12 540.254 298.436 539.68 289.704Z" fill="#FBF8CB"/>
    <path d="M521.404 200.166C522.413 203.087 522.208 206.251 521.862 209.25C518.605 211.501 516.67 211.562 512.777 212.306C512.412 212.197 512.565 212.303 512.333 211.96C514.726 208.319 518.626 203.822 521.404 200.166Z" fill="#FBF8CB"/>
    <path d="M458.004 173.267L458.343 173.311L458.486 173.78C457.099 176.879 454.398 182.3 452.447 185.034C451.175 183.731 451.244 179.095 451.876 177.428C452.799 174.997 455.786 174.169 458.004 173.267Z" fill="#FBF8CB"/>
    <path d="M389.368 170.891C390.524 171.287 390.828 171.552 390.968 172.619C385.068 178.414 382.631 184.179 378.041 190.786C374.565 196.738 367.401 201.832 363.293 206.58C358.62 211.978 348.206 213.736 345.598 216.373C338.167 223.885 335.961 242.361 334.776 252.888C345.885 240.951 361.843 236.059 377.436 232.485C379.398 232.035 386.836 230.943 388.357 231.985C388.739 236.307 375.696 247.479 372.121 250.488C360.893 259.935 348.708 261.64 334.555 260.147C334.727 273.442 336.379 285.886 339.037 298.915C339.767 302.498 340.535 307.612 341.714 310.976C345.403 305.101 351.61 301.169 357.267 297.318C369.674 288.876 388.254 284.315 403.143 287.334C399.01 293.866 393.747 299.611 387.601 304.298C377.566 311.865 367.702 314.756 355.318 316.277C351.159 316.788 347.026 317.172 342.874 316.579C344.795 328.571 347.874 340.885 349.135 353.042C350.058 361.925 349.867 371.882 349.672 380.789C366.177 380.687 374.579 381.127 390.448 387.376C425.524 401.188 425.79 434.858 421.381 467.37C421.671 467.561 421.959 467.756 422.246 467.951C432.937 475.375 426.378 501.355 420.291 510.289C417.173 514.869 412.368 515.98 407.34 516.835C400.736 537.312 403.515 551.339 404.814 571.987C408.847 573.662 414.073 575.278 418.291 576.796C424.474 579.069 430.582 581.547 436.601 584.223C465.876 597.522 493.165 614.817 517.689 635.612C519.658 637.308 527.837 643.843 526.654 646.157C525.66 646.297 524.525 645.719 523.818 645.063C517.481 639.218 511.034 633.873 504.253 628.558C482.45 611.543 458.65 597.256 433.385 586.018C428.275 583.789 423.128 581.779 417.912 579.828C414.008 578.368 408.058 576.765 404.534 574.858C393.381 593.588 378.243 609.639 360.196 621.869C356.761 623.913 354.495 625.478 350.718 622.648C337.702 612.9 325.234 601.248 315.766 587.969C313.676 585.037 312.326 580.583 311.498 577.127C277.599 586.277 245.102 605.76 217.309 626.773C208.776 633.227 201.077 642.308 192.921 648.843C191.889 648.891 192.315 649.052 191.576 648.423C191.21 644.957 205.054 633.387 208.077 630.834C232.706 609.738 260.675 592.884 290.838 580.973C297.347 578.437 304.983 576.047 311.667 573.884C312.198 567.075 312.536 560.256 312.679 553.427C309.871 552.361 307.203 550.959 304.733 549.25C285.306 535.979 287.624 512.938 286.616 492.164C286.153 482.61 286.257 472.804 286.392 463.241C286.958 423.237 304.449 388.873 346.562 381.48C348.479 359.69 344.108 337.752 339.551 316.503C336.554 316.423 332.804 316.91 329.713 317.088C307.002 318.395 285.78 305.983 269.361 291.322C276.952 288.542 283.263 287.918 291.383 287.914C305.926 287.907 327.246 296.542 337.266 306.669C334.961 294.622 331.068 272.225 331.791 260.348C331.471 260.322 331.152 260.292 330.833 260.258C306.586 257.625 284.965 222.601 305.881 202.97C306.634 202.263 307.412 202.144 308.381 202.259C309.072 203.676 309.324 210.052 309.79 212.194C313.027 227.07 326.445 237.346 332.091 250.984C332.553 236.451 340.022 216.518 345.283 202.91C352.512 184.213 371.879 177.421 389.368 170.891Z" fill="#0C551F"/>
    <path d="M351.001 383.995C379.213 382.201 413.468 393.323 418.858 425.062C421.053 437.978 420.096 453.769 418.349 466.638C418.349 466.631 407.022 470.972 408.283 476.923C410.83 477.398 420.174 461.846 424.129 475.938C426.771 485.345 423.107 497.902 419.228 506.478C417.457 510.392 413.796 512.504 409.784 513.601C407.268 512.651 404.739 511.745 402.196 510.88C403.03 512.866 403.235 513.41 404.564 515.207C400.271 531.098 399.219 538.713 400.582 555.475C400.446 558.192 402.391 569.745 401.642 571.806C396.16 586.916 377.863 604.669 365.979 614.11C362.599 616.673 358.353 619.548 354.823 621.937C354.628 621.804 354.433 621.67 354.238 621.537C342.2 612.254 316.571 591.985 314.559 576.129C314.106 572.558 316.446 558.103 315.495 553.441C314.764 550.853 309.28 548.563 306.909 547.015C287.703 534.481 290.904 511.202 289.655 491.083C286.817 445.395 292.122 395.247 346.141 384.58C345.902 386.234 344.969 393.928 345.29 395.062C346.291 395.524 346.363 395.36 347.563 395.267C348.937 393.517 348.291 386.75 349.614 384.518C349.891 384.057 350.253 384.152 351.001 383.995Z" fill="#FBF8CB"/>
    <path d="M338.617 471.648C339.614 471.912 340.245 471.946 340.885 472.732C340.244 477.944 336.036 488.277 335.21 494.176C334.898 496.685 334.094 500.373 335.857 502.489C337.105 503.989 339.445 503.685 341.24 504.413C341.781 505.408 341.602 505.103 341.226 506.573C336.721 507.424 335.414 506.826 332.405 503.477C330.839 495.171 332.966 490.444 335.21 482.418C336.204 478.86 337.254 475.073 338.617 471.648Z" fill="#0C551F"/>
    <path d="M355.602 514.383C356.388 514.291 356.333 514.278 357.048 514.616L357.246 515.276C357.167 515.542 357.089 515.908 356.873 516.092C348.575 523.168 334.944 521.947 325.408 519.657C324.431 518.752 323.53 518.198 323.238 516.94C323.341 516.721 323.445 516.503 323.549 516.284C326.285 516.513 331.132 518.044 333.819 518.314C342.969 519.237 347.512 517.607 355.602 514.383Z" fill="#0C551F"/>
    <path d="M378.673 473.382L379.148 473.867C380.04 477.275 374.141 478.963 371.506 479.544C366.324 480.683 361.771 479.562 357.396 476.643C356.662 475.727 356.658 475.224 356.966 474.182C362.585 473.221 362.828 481.92 378.673 473.382Z" fill="#0C551F"/>
    <path d="M321.538 472.695C322.56 472.678 322.111 472.541 322.942 473.084L322.895 473.881C319.313 479.889 311.4 479.64 305.691 477.241C304.547 476.581 303.706 476.055 303.702 474.629C305.321 473.744 307.46 474.711 309.061 475.268C313.619 476.844 317.578 474.756 321.538 472.695Z" fill="#0C551F"/>
    <path d="M361.515 460.879C365.415 460.558 374.23 461.375 376.117 466.208C376.349 466.806 376.1 466.908 375.789 467.503C373.68 466.881 370.508 464.905 368.136 464.174C365.572 463.388 363.775 463.453 361.163 462.981C360.879 461.928 361.033 462.144 361.515 460.879Z" fill="#0C551F"/>
    <path d="M311.482 460.168C313.886 459.97 316.445 459.881 318.554 461.262L318.508 461.709C316.876 462.848 312.982 463.094 310.786 463.412C309.263 463.986 306.385 465.527 305.398 463.849C306.31 461.511 309.294 460.79 311.482 460.168Z" fill="#0C551F"/>
</g>
</g>
<defs>
<clipPath id="clip0_702_592">
<rect width="700" height="700" fill="white"/>
</clipPath>
</defs>
</svg>
