<svg width="700" height="700" viewBox="0 0 700 700" fill="none" xmlns="http://www.w3.org/2000/svg">
<path d="M189.775 341.706C191.431 329.332 226.035 275.21 230.354 272.691C243.149 265.228 422.268 271.039 446.777 285.904C456.404 291.742 493.694 362.55 493.694 371.132C493.694 376.554 402.619 380.934 386.855 381.72C368.662 382.628 329.112 380.103 289.473 371.132C256.991 363.779 225.188 353.638 191.431 349.725C190.629 349.63 210.443 382.665 230.354 411.253C239.642 424.593 302.768 544.626 311.505 548.57C320.241 552.515 474.962 386.193 495.185 371.81" stroke="#0C551F" stroke-width="28" stroke-linecap="round" stroke-linejoin="round"/>
<path d="M385.473 384.6C364.457 429.302 326.704 514.632 320.24 540.211" stroke="#0C551F" stroke-width="21" stroke-linecap="round" stroke-linejoin="round"/>
<path d="M294.544 382.469C301.186 435.072 310.198 487.966 316.288 540.21" stroke="#0C551F" stroke-width="21" stroke-linecap="round" stroke-linejoin="round"/>
<path d="M308.38 265.228C296.03 300.2 299.689 339.69 294.544 376.073" stroke="#0C551F" stroke-width="21" stroke-linecap="round" stroke-linejoin="round"/>
<path d="M379.543 273.754C382.949 305.34 378.625 363.636 389.427 384.599" stroke="#0C551F" stroke-width="21" stroke-linecap="round" stroke-linejoin="round"/>
<path opacity="0.503384" d="M308.382 271.623C289.326 295.215 254.79 335.283 249.079 354.757" stroke="#0C551F" stroke-width="28" stroke-linecap="round" stroke-linejoin="round"/>
<path opacity="0.503384" d="M235.24 280.148C238.082 302.081 247.492 322.519 251.053 344.099" stroke="#0C551F" stroke-width="28" stroke-linecap="round" stroke-linejoin="round"/>
<path opacity="0.503384" d="M314.31 273.754C340.522 304.43 341.017 341.596 367.684 371.81" stroke="#0C551F" stroke-width="28" stroke-linecap="round" stroke-linejoin="round"/>
<path opacity="0.503384" d="M367.686 286.544C348.464 312.656 325.357 335.614 308.383 363.283" stroke="#0C551F" stroke-width="28" stroke-linecap="round" stroke-linejoin="round"/>
<path opacity="0.503384" d="M397.338 282.281C431.258 308.334 455.77 341.104 484.314 369.678" stroke="#0C551F" stroke-width="28" stroke-linecap="round" stroke-linejoin="round"/>
<path opacity="0.503384" d="M135.116 265.226C120.933 255.635 108.414 246.433 106.75 246.043" stroke="#0C551F" stroke-width="28" stroke-linecap="round" stroke-linejoin="round"/>
<path opacity="0.503384" d="M225.354 184.225C219.588 172.766 225.354 174.317 216.006 158.329" stroke="#0C551F" stroke-width="28" stroke-linecap="round" stroke-linejoin="round"/>
<path opacity="0.503384" d="M371.707 194.883C369.421 181.016 371.73 165.985 372.552 152.25" stroke="#0C551F" stroke-width="28" stroke-linecap="round" stroke-linejoin="round"/>
<path opacity="0.503384" d="M484.311 226.857C495.184 218.331 498.292 214.404 506.055 209.805" stroke="#0C551F" stroke-width="28" stroke-linecap="round" stroke-linejoin="round"/>
<path opacity="0.503384" d="M573.265 352.626C583.149 349.962 586.465 350.513 593.033 347.297" stroke="#0C551F" stroke-width="28" stroke-linecap="round" stroke-linejoin="round"/>
<path opacity="0.503384" d="M521.873 512.499C526.944 517.688 531.206 523.801 535.71 529.553" stroke="#0C551F" stroke-width="28" stroke-linecap="round" stroke-linejoin="round"/>
<path opacity="0.503384" d="M116.634 402.707C113.922 405.922 110.029 406.996 106.75 409.128" stroke="#0C551F" stroke-width="28" stroke-linecap="round" stroke-linejoin="round"/>
<path opacity="0.503384" d="M440.822 384.6L342.972 515.489" stroke="#0C551F" stroke-width="28" stroke-linecap="round" stroke-linejoin="round"/>
</svg>
