<svg width="700" height="700" viewBox="0 0 700 700" fill="none" xmlns="http://www.w3.org/2000/svg">
<path d="M118.05 194.233C159.635 59.94 322.4 165.225 247.606 272.619C199.411 341.835 99.7365 297.621 109.694 218.988" stroke="#232905" stroke-width="28" stroke-linecap="round" stroke-linejoin="round"/>
<path d="M260 327.753C293.22 344.87 315.465 364.998 350.804 377.135C363.703 381.56 396.207 392.954 431.05 385.572M449 327.753C436.146 319.13 403.598 337.059 364.921 327.753C344.936 319.519 274.265 297.601 260 278" stroke="#232905" stroke-width="28" stroke-linecap="round" stroke-linejoin="round"/>
<path d="M207 118.522C250.25 36.0375 240.919 105.106 246 149" stroke="#232905" stroke-width="28" stroke-linecap="round" stroke-linejoin="round"/>
<path d="M107.612 281C71.2367 355.413 39.5879 340.754 115.553 343.877C152.954 345.414 226.905 332.146 257 328.025" stroke="#232905" stroke-width="28" stroke-linecap="round" stroke-linejoin="round"/>
<path d="M450 328C510.634 361.292 545.44 425.15 579 483" stroke="#232905" stroke-width="28" stroke-linecap="round" stroke-linejoin="round"/>
<path d="M435 385C484.874 367.343 550.945 361.121 590 323" stroke="#232905" stroke-width="28" stroke-linecap="round" stroke-linejoin="round"/>
<path opacity="0.503384" d="M297.616 183.367C355.204 146.017 452.911 159.1 511.772 183.3C591.437 216.042 642.331 284.063 628.836 376.24C572.794 759.254 4.65527 632.408 95.8984 394.876" stroke="#232905" stroke-width="28" stroke-linecap="round" stroke-linejoin="round"/>
<path opacity="0.503384" d="M331.87 279.979C445.546 231.996 534.769 388.992 418.571 451.467C387.71 468.058 351.832 472.586 317.695 463.121C289.592 455.322 229.697 417.973 255.162 382.372" stroke="#232905" stroke-width="28" stroke-linecap="round" stroke-linejoin="round"/>
</svg>
