<svg width="700" height="700" viewBox="0 0 700 700" fill="none" xmlns="http://www.w3.org/2000/svg">
<path d="M619.89 341.29C630.693 312.897 635.506 282.223 633.632 251.734C633.559 250.631 633.228 249.49 632.64 248.424C632.714 225.106 626.577 201.899 614.672 181.671C616.252 178.912 616.473 175.124 614.195 172.439C591.597 145.738 560.879 126.65 527.441 117.345C526.302 115.543 524.391 114.182 521.672 113.998C519.027 113.814 516.381 113.704 513.736 113.631C512.56 113.594 511.384 113.52 510.208 113.483C495.951 111.019 481.327 110.284 466.813 111.497C461.081 111.976 458.84 117.272 460.162 121.354C444.362 126.393 429.297 133.822 415.665 143.458C409.051 148.129 412.909 158.758 421.287 156.772L423.859 156.147C410.359 172.391 394.78 186.785 377.524 198.957C372.196 202.708 374.181 210.064 378.517 212.234C378.406 212.344 378.333 212.454 378.223 212.528L372.49 210.101C368.338 208.372 365.325 210.799 364.186 214.146C362.459 213.08 360.732 212.05 359.005 210.983C347.872 199.177 333.541 190.093 319.285 182.811C297.679 171.777 274.236 164.569 250.095 161.958C202.879 156.882 154.78 173.69 128.729 215.066C102.64 256.515 103.081 310.175 119.653 354.971C121.012 358.686 122.519 362.364 124.062 366.005C123.548 365.858 123.033 365.674 122.519 365.527C114.435 363.173 110.026 374.501 116.897 378.841C123.364 382.923 129.868 386.969 136.372 391.014C154.56 423.784 178.958 453.17 203.834 481.195C201.299 484.064 200.564 488.735 203.834 491.383C214.012 499.658 224.374 507.639 234.92 515.362C245.282 526.47 255.754 537.466 266.336 548.316C259.098 547.139 254.688 556.628 261.412 561.667C274.934 571.817 288.824 581.38 303.044 590.501C303.411 592.266 304.44 593.921 306.24 595.025L323.731 605.654C330.749 612.531 337.804 619.409 344.859 626.25C350.481 631.73 356.066 637.246 361.761 642.653C365.987 646.698 370.91 650.266 377.12 648.427C383.22 646.625 387.335 640.52 391.34 636.033L408.573 616.687L413.681 610.95C417.649 609.515 421.544 607.787 425.366 605.911C427.533 607.787 430.62 608.522 433.523 606.683C467.879 584.837 498.376 557.511 523.693 525.587C526.817 521.652 525.016 515.399 521.305 513.376C545.336 488.588 568.338 462.843 590.274 436.178C593.471 432.39 596.594 428.565 599.681 424.63C600.085 424.152 600.489 423.674 600.856 423.159C601.224 422.644 601.628 422.166 601.995 421.687C606.956 415.178 595.749 406.388 590.568 412.861C585.277 419.481 579.912 426.027 574.511 432.5C569.761 437.861 564.847 443.074 559.776 448.131C561.944 444.748 564.112 441.364 566.243 437.98C567.235 437.649 568.227 437.098 569.183 436.178C584.689 421.687 597.586 404.769 607.507 386.233C611.512 385.093 614.195 380.569 612.357 376.45C616.473 367.55 619.963 358.318 622.719 348.829C623.711 345.409 622.278 342.65 619.927 341.143L619.89 341.29ZM395.309 601.13C390.569 601.976 385.645 602.233 380.758 601.902C376.496 598.592 372.16 595.356 367.787 592.193C372.748 590.905 376.055 584.874 371.388 580.24C364.704 573.603 357.702 567.294 350.407 561.336C369 571.56 387.372 582.226 405.487 593.333C406.699 594.068 407.838 594.399 408.941 594.473L405.193 598.666C401.959 599.696 398.652 600.541 395.272 601.13H395.309ZM333.578 441.842C299.957 426.211 266.336 410.544 232.715 394.913C225.587 386.821 218.311 378.841 210.926 370.933C252.226 393.846 293.123 417.495 333.578 441.842ZM247.156 313.448C282.724 328.932 317.741 345.63 352.134 363.577C374.217 376.45 396.264 389.359 418.347 402.232C425.586 406.461 432.861 410.691 440.1 414.957C438.373 416.06 437.05 417.789 436.609 419.701C410.594 405.174 384.249 391.235 357.572 377.958C323.437 358.87 289.412 339.598 255.46 320.142C252.704 317.899 249.911 315.655 247.156 313.448ZM310.466 411.095L320.938 416.391C362.312 439.966 404.054 462.879 446.2 485.094C446.2 485.13 446.273 485.204 446.31 485.241H446.126C442.966 484.91 440.21 487.374 439.218 490.279C396.815 463.1 353.898 436.73 310.503 411.132L310.466 411.095ZM332.072 405.762C333.468 405.358 334.644 404.438 335.526 403.261C338.392 404.769 341.258 406.277 344.087 407.822C363.268 418.23 382.375 428.712 401.445 439.304C412.615 445.52 423.749 451.809 434.882 458.098C434.441 458.871 434.221 459.753 434.184 460.709C400.575 441.619 366.529 423.31 332.072 405.799V405.762ZM359.41 399.584C346.476 392.522 333.505 385.534 320.534 378.583C318.881 376.965 317.264 375.31 315.61 373.692C327.111 379.135 338.575 384.688 349.966 390.389C382.132 408.376 414.394 426.189 446.751 443.828C447.963 445.961 449.213 448.094 450.499 450.191C420.295 433.015 390.018 416.024 359.41 399.584ZM449.8 401.754C427.497 388.329 404.899 375.42 382.044 363.026C390.863 365.747 399.681 368.395 408.573 370.896C409.529 371.154 410.484 371.191 411.366 371.08L435.286 383.989L453.695 393.92C450.976 395.391 449.139 398.554 449.874 401.717L449.8 401.754ZM400.453 345.409C410.006 350.779 419.45 356.258 428.893 361.812C428.966 361.849 429.04 361.922 429.113 361.959C420.883 357.546 412.652 353.132 404.385 348.792C403.098 347.652 401.776 346.512 400.453 345.409ZM437.307 349.933L417.576 336.913C422.72 335.994 426.064 328.27 421.507 324.445C416.069 319.885 410.558 315.398 405.046 310.947C411.954 314.772 418.862 318.634 425.733 322.569C439.733 332.794 453.953 342.65 468.467 352.103C466.519 354.162 465.784 357.215 467.658 360.341C470.341 364.828 473.133 369.241 475.999 373.618C463.212 365.527 450.352 357.619 437.344 349.896L437.307 349.933ZM462.514 187.335C472.068 196.603 481.805 205.65 491.726 214.514C479.894 207.342 468.062 200.207 456.231 193.035C449.323 188.843 440.945 199.067 447.412 204.474C450.94 207.416 454.467 210.358 458.031 213.264C457.002 212.786 455.974 212.271 454.908 211.756C449.433 209.181 444.656 213.043 444.142 217.493C433.119 212.344 421.985 207.416 410.741 202.671H410.705C425.77 191.675 443.003 183.767 461.118 179.391C459.905 181.855 460.015 184.907 462.551 187.335H462.514ZM400.416 211.241C400.857 212.822 401.812 214.257 403.319 215.25L444.913 242.282C427.791 234.227 410.521 226.467 393.141 218.964C395.492 216.353 397.918 213.742 400.379 211.241H400.416ZM484.818 277.994C481.988 278.803 480.078 281.267 479.71 284.062L437.381 254.713C453.328 262.216 469.128 269.976 484.818 277.994ZM465.049 501.644C471.075 502.232 475.007 493.075 470.194 489.213C469.716 488.845 469.275 488.404 468.797 488.036C469.606 486.234 469.753 484.174 468.944 482.335C474.86 485.167 480.813 487.962 486.729 490.794C493.6 494.068 502.455 484.91 495.547 479.356C487.978 473.251 481.07 466.484 474.823 459.128L484.965 464.645C490.329 467.55 495.253 463.394 495.768 458.797C496.576 459.238 497.384 459.717 498.193 460.158C505.101 463.836 513.772 454.126 507.011 448.72C506.534 448.315 506.019 447.984 505.542 447.58C503.337 445.851 501.132 444.159 498.891 442.541C501.389 439.452 501.61 434.376 497.274 431.544C488.749 426.027 480.188 420.584 471.553 415.214C471.112 414.442 470.671 413.707 470.23 412.934C493.894 422.019 516.234 433.972 537.105 448.499C522.444 467.109 506.644 484.91 490.991 502.49C482.723 511.758 474.456 521.063 466.188 530.331C462.955 520.511 459.685 510.692 456.451 500.835C459.317 501.129 462.22 501.387 465.086 501.681L465.049 501.644ZM588.437 239.524C573.959 229.74 559.446 219.994 544.968 210.211C559.084 217.401 572.899 225.168 586.379 233.492C588.326 234.706 590.311 235.956 592.258 237.17C597.145 248.939 600.121 261.223 601.554 273.764C600.599 279.428 600.893 285.276 602.51 290.903C602.51 302.341 601.371 313.853 599.203 325.181L581.896 313.926C589.319 317.531 595.492 305.872 588.216 300.76L586.085 299.289C587.408 296.236 587.04 292.227 583.697 289.689C577.119 284.724 570.506 279.87 563.781 275.162C569.587 278.693 575.429 282.187 581.235 285.717C589.392 290.646 596.116 278.472 588.584 273.139C563.781 255.632 539.898 236.949 516.896 217.199C538.318 228.821 559.703 240.443 581.125 252.102C589.429 256.626 596.19 244.746 588.473 239.524H588.437ZM593.36 338.752C594.206 339.267 595.051 339.598 595.859 339.745C595.492 341.143 595.051 342.503 594.683 343.901L589.907 354.714C584.342 350.016 578.567 345.573 572.6 341.4C567.719 332.15 561.682 323.561 554.632 315.839C567.676 323.305 580.61 330.955 593.434 338.789L593.36 338.752ZM525.273 277.148C531.446 280.863 537.583 284.651 543.645 288.512C554.375 295.684 565.141 302.856 575.87 310.028L525.273 277.148ZM562.899 412.235C562.752 410.764 562.054 409.256 560.621 407.859C558.38 405.762 556.139 403.703 553.86 401.68C555.845 402.71 557.829 403.74 559.813 404.733C562.826 406.241 566.059 405.431 568.264 403.556C566.537 406.461 564.773 409.367 562.936 412.235H562.899ZM540.338 322.128C535.892 319.921 531.373 317.825 526.817 315.876C521.672 311.205 516.602 306.387 511.715 301.422C522.334 306.755 531.997 313.779 540.338 322.165V322.128ZM521.084 337.575C528.323 341.253 535.598 344.82 542.947 348.351C555.183 357.73 567.97 366.336 581.198 374.243C577.744 382.003 574.327 389.801 570.873 397.561C570.726 396.09 570.028 394.619 568.558 393.331C549.01 375.714 528.47 359.495 507.158 344.379C508.15 344.784 509.143 345.225 510.098 345.666C515.903 348.13 522.554 342.982 521.048 337.612L521.084 337.575ZM536.884 406.241C541.22 410.36 545.703 414.332 550.296 418.194C552.868 420.327 555.881 420.4 558.306 419.334C554.375 425.255 550.259 431.029 545.997 436.767C541.461 432.282 537.026 427.696 532.696 423.012C535.819 420.069 536.591 414.221 531.961 411.022C524.502 405.799 516.932 400.65 509.363 395.575C504.586 389.433 499.956 383.18 495.547 376.818C510.08 385.547 523.902 395.409 536.884 406.314V406.241ZM447.486 573.068C447.78 573.472 448.11 573.877 448.478 574.245C446.552 575.696 444.604 577.119 442.635 578.511L447.486 573.068ZM501.683 512.604C508.297 505.248 514.875 497.856 521.378 490.39C521.636 490.721 521.93 491.052 522.224 491.346C515.463 498.518 508.591 505.579 501.647 512.604H501.683ZM618.236 247.946C616.179 249.307 614.305 250.814 612.578 252.506C611.953 249.969 611.255 247.468 610.483 244.967C597.292 201.678 562.091 162.178 516.381 153.315C486.471 147.504 457.407 154.786 431.722 169.203C437.528 162.509 443.04 155.485 448.184 148.166C449.764 145.922 449.617 143.532 448.551 141.546C467.621 132.976 488.235 128.416 509.29 128.232C538.207 133.565 565.398 146.658 587.555 166.224C587.408 168.1 587.922 170.049 589.319 171.594C608.095 192.373 618.126 220.141 618.2 247.946H618.236ZM360.989 244.305C362.386 246.364 364.884 247.688 367.42 247.652C375.871 252.102 384.322 256.552 392.737 261.076C418.053 278.619 444.105 295.096 470.818 310.432C471.149 311.242 471.516 312.051 471.884 312.86C439.951 298.178 408.471 282.528 377.488 265.93C365.77 255.918 354.29 245.629 343.058 235.073L361.026 244.341L360.989 244.305ZM373.336 304.695C369.661 303.15 365.987 301.569 362.312 300.024C339.935 284.871 317.631 269.608 295.474 254.161C301.464 257.067 307.49 260.009 313.442 262.988C333.909 276.118 353.898 290.057 373.299 304.732L373.336 304.695ZM341.221 316.722C325.752 308.373 310.282 300.024 294.85 291.639C306.424 296.972 317.888 302.452 329.316 308.042C333.321 310.911 337.289 313.779 341.221 316.685V316.722ZM292.535 202.635C294.372 203.37 296.246 204.106 298.083 204.841C297.018 207.195 297.201 210.101 299.59 212.602C305.689 218.928 311.899 225.18 318.182 231.359C310.209 226.394 302.162 221.502 294.115 216.61C294.593 214.955 294.482 213.08 293.453 211.167C292.535 209.512 291.579 207.857 290.587 206.239C290.587 205.54 290.551 204.841 290.367 204.143C291.175 203.775 291.873 203.26 292.498 202.671L292.535 202.635ZM336.665 330.808C339.972 332.573 343.279 334.375 346.549 336.141C335.269 332.216 324.048 328.121 312.891 323.857C299.957 316.317 287.06 308.777 274.126 301.238C295.107 310.8 315.941 320.657 336.665 330.808ZM214.71 176.853C227.13 175.161 240.101 175.235 253.035 176.816C251.969 178.103 251.344 179.685 251.455 181.266C250.61 183.252 250.573 185.68 251.455 187.776C249.838 187.555 248.221 187.335 246.568 187.188C244.363 186.967 242.636 187.776 241.46 189.1C231.135 186.011 220.149 185.202 209.456 187.004C205.414 184.834 201.335 182.737 197.22 180.715C202.842 178.986 208.684 177.662 214.747 176.853H214.71ZM149.746 372.404C152.172 373.692 154.56 374.979 156.985 376.266C152.208 374.721 147.468 373.213 142.692 371.742C125.569 336.472 117.007 297.229 126.487 258.17C134.093 226.872 153.274 201.678 180.061 187.739C180.685 188.585 181.567 189.358 182.78 189.909C186.711 191.748 190.569 193.661 194.428 195.61C194.097 197.706 194.648 199.913 196.485 201.568C203.614 208.078 211.477 213.595 219.965 217.971C220.516 218.744 221.214 219.479 222.133 220.141C233.487 228.269 244.877 236.324 256.305 244.378C232.054 230.733 207.141 218.229 181.641 206.938C173.263 203.223 166.098 214.551 174.292 219.516C185.646 226.43 197.11 233.124 208.684 239.707C197.882 235.588 187.042 231.543 176.129 227.681C168.339 224.922 163.305 237.096 170.507 240.995C170.874 241.215 171.279 241.399 171.646 241.62C171.536 241.583 171.426 241.546 171.315 241.473C163.526 238.347 158.749 250.741 165.693 254.787C171.462 258.17 177.231 261.517 183 264.901C171.242 258.685 159.557 252.249 147.983 245.629C139.825 240.958 132.55 253.463 140.634 258.207C141.846 258.906 143.059 259.678 144.272 260.377C140.707 263.246 139.899 269.939 144.749 272.771C168.486 286.747 192.296 300.613 216.143 314.368C190.312 303.959 164.26 294.14 138.025 284.835C130.309 282.113 125.018 294.507 132.403 298.148C134.718 299.289 137.07 300.465 139.385 301.642C132.771 299.472 126.083 308.41 131.962 313.706C137.253 318.487 142.434 323.305 147.652 328.196C146.072 331.507 146.439 335.92 150.224 337.906C155.956 340.959 161.688 344.048 167.384 347.137C177.966 357.583 188.365 368.212 198.543 379.061L157.132 359.789C148.754 355.891 141.406 367.917 149.783 372.368L149.746 372.404ZM169.993 316.942C169.699 317.384 169.478 317.862 169.294 318.34C159.998 313.264 150.775 308.079 141.626 302.783C151.106 307.49 160.549 312.198 169.993 316.942ZM165.73 410.838C165.069 409.882 164.444 408.925 163.82 407.969C164.628 408.447 165.4 408.925 166.208 409.403C165.987 409.845 165.84 410.323 165.73 410.801V410.838ZM194.428 448.83C187.777 440.739 181.31 432.5 175.1 424.115C182.008 430.845 188.842 437.649 195.567 444.564C194.758 445.814 194.317 447.322 194.391 448.83H194.428ZM227.056 486.05C218.128 476.34 209.272 466.484 200.711 456.37C206.222 460.048 211.734 463.762 217.246 467.44C224.264 475.09 231.209 482.813 238.006 490.647C234.369 489.103 230.694 487.558 227.02 486.013L227.056 486.05ZM232.531 431.581C213.167 420.511 193.95 409.183 174.843 397.671C195.236 404.696 215.409 412.272 235.361 420.364C240.762 426.689 246.09 433.126 251.344 439.562C245.098 436.84 238.815 434.155 232.495 431.581H232.531ZM268.431 504.108C266.961 502.343 265.528 500.541 264.058 498.775C269.349 502.306 274.64 505.874 279.968 509.404C276.147 507.602 272.289 505.837 268.431 504.071V504.108ZM265.748 434.266C322.334 464.424 378.921 494.583 435.544 524.704C443.848 529.118 450.756 517.201 442.893 512.126C436.352 507.896 429.775 503.74 423.161 499.658C427.386 501.607 431.575 503.556 435.801 505.543C438.336 506.719 440.725 506.499 442.599 505.543L454.945 542.946C447.522 551.295 440.063 559.644 432.641 567.993C427.129 574.171 421.618 580.35 416.143 586.529C416.032 584.432 415.04 582.373 412.799 580.902L306.24 509.551C306.939 509.662 307.637 509.699 308.335 509.625C319.432 515.73 330.492 522.019 341.442 528.419C360.475 540.372 379.619 552.141 398.91 563.689C406.993 568.544 414.085 556.15 406.258 551.111C387.372 538.937 368.191 527.168 348.79 515.841C335.158 507.308 321.6 498.665 308.114 489.912C343.499 508.705 379.251 526.801 415.371 544.123C423.786 548.169 430.657 536.694 422.72 531.545C377.107 501.909 329.466 475.522 280.152 452.581C275.412 446.439 270.635 440.371 265.748 434.339V434.266ZM374.364 633.238C372.27 633.9 370.874 631.546 368.926 629.67L362.423 623.381C366.464 622.903 369.183 618.784 368.485 614.812C370.543 615.29 372.637 615.657 374.732 615.952C377.194 617.827 379.656 619.74 382.044 621.726C382.558 622.167 383.11 622.498 383.661 622.792L382.742 623.822C381.015 625.772 376.643 632.502 374.291 633.238H374.364Z" fill="#85E6D6"/>
<path d="M626.066 221.718C610.319 177.042 567.676 143.232 519.294 133.761C467.785 123.703 414.435 141.103 376.649 174.619C341.807 151.786 300.341 137.983 257.625 139.855C206.594 142.094 156.298 168.415 130.102 210.485C98.4604 261.365 113.104 321.972 137.829 372.375C161.817 421.236 194.857 466.426 233.232 506.109C276.905 551.262 328.635 589.293 385.48 618.367C390.704 621.047 396.481 620.166 400.822 616.495C481.14 548.582 565.101 475.493 607.891 379.644C629.231 331.847 643.874 272.414 626.03 221.681L626.066 221.718ZM581.547 377.404C561.532 418.996 533.055 456.33 501.229 490.47C466.902 527.29 428.784 560.696 390.189 593.478C303.579 547.444 230.656 479.935 180.839 398.402C154.385 355.121 127.269 301.745 140.22 250.535C151.111 207.438 191.141 176.455 235.66 166.763C278.928 157.366 323.116 169.627 359.43 192.57C351.557 204.354 368.445 219.809 378.305 208.209C378.673 207.768 379.041 207.364 379.446 206.924C384.118 210.705 388.607 214.633 392.838 218.744C404.281 229.757 422.199 212.797 410.719 201.784C406.317 197.584 401.764 193.543 397.069 189.67C426.54 165.075 465.54 150.721 505.313 155.75C550.421 161.477 591.629 192.387 603.733 234.456C617.089 280.857 602.114 334.784 581.584 377.441L581.547 377.404Z" fill="#064E42"/>
<path d="M463.23 212.141C447.035 213.357 446.887 237.453 463.23 236.2C496.028 233.731 528.124 262.838 522.466 294.819C519.767 309.962 544.282 316.483 546.982 301.23C555.19 254.99 513.962 208.346 463.23 212.141Z" fill="#064E42"/>
</svg>
