<svg width="700" height="700" viewBox="0 0 700 700" fill="none" xmlns="http://www.w3.org/2000/svg">
<g clip-path="url(#clip0_624_726)">
<path d="M0 0H700V700H0V0Z" fill="#EDF4FF"/>

<!-- Background Clouds -->
<g id="background-clouds">
    <animateTransform attributeName="transform" type="translate" values="-20 0; 20 0; -20 0" dur="20s" repeatCount="indefinite" />
    <path d="M511.236 499.15C527.963 497.157 545.022 507.295 553.82 521.223C563.168 536.016 553.913 548.478 550.577 563.257C559.586 564.276 566.686 564.057 575.234 568.685C584.695 573.805 594.856 582.47 600.428 591.804C602 594.443 602.981 597.659 603.897 600.551C615.156 605.49 629.928 605.144 639.926 613.023C643.457 615.808 644.984 621.277 641.252 624.493C629.86 634.228 613.994 633.421 600.028 633.469C577.25 633.541 554.736 633.756 531.986 633.496C473.563 632.833 415.222 629.812 356.819 628.205C354.45 627.976 352.044 628.024 349.662 627.935C331.248 627.269 312.83 627.669 294.404 627.597C281.545 627.549 268.822 628.458 256.714 623.058C254.781 622.197 252.434 620.532 251.799 618.307C249.924 609.403 261.235 607.875 267.304 605.965C275.182 603.452 283.056 601.06 291.313 600.151C296.976 599.559 303.09 599.587 308.748 599.371C322.002 598.862 318.686 590.796 320.199 581.348C322.271 568.405 333.557 557.46 346.083 554.155C361.857 549.992 375.341 560.109 387.998 567.776C388.896 556.585 387.174 545.692 389.546 533.746C391.709 522.857 397.886 516.947 406.673 510.333C415.56 503.648 426.662 503.026 437.37 504.892C453.534 507.712 461.969 517.238 470.846 530.349C477.767 514.818 494.074 501.043 511.236 499.15Z" fill="#3B2C7E"/>
    <path d="M512.224 502.916C523.698 501.798 535.691 507.055 543.877 515.05C547.333 518.423 549.309 521.52 551.541 525.683C556.801 535.025 551.544 545.62 548.475 554.999C542.873 572.137 549.944 565.667 561.706 567.905C575.224 570.592 589.822 581.878 596.729 593.598C602.051 602.622 597.54 603.114 609.584 606.265C618.823 608.682 630.653 609.803 637.998 615.948C640.401 617.958 640.1 621.14 637.725 623.153C626.486 631.828 608.091 629.046 594.897 629.555C583.071 630.013 571.939 630 560.496 629.993C519.897 629.812 479.305 628.783 438.751 626.906C414.292 625.932 390.055 624.746 365.538 624.722C361.611 624.719 357.684 624.473 353.712 624.497C340.198 624.357 326.686 623.41 313.184 623.359C298.992 623.304 284.257 624.377 270.16 622.723C266.126 622.248 261.081 621.198 257.662 618.901C256.679 618.242 255.788 617.476 255.623 616.239C255.532 615.559 255.845 614.837 256.284 614.321C258.983 611.136 285.375 604.119 290.606 603.466C296.65 602.714 302.757 603.22 308.817 602.752C327.813 601.278 322.077 590.997 325.423 578.522C326.411 574.84 328.461 571.484 330.941 568.62C334.794 564.17 339.857 560.502 345.478 558.67C366.615 551.783 381.302 573.063 389.481 572.485C390.308 571.973 390.845 571.481 391.019 570.397C392.632 560.225 391.542 548.693 392.619 538.518C392.913 535.718 393.583 532.974 394.615 530.356C397.715 522.546 407.063 513.146 414.565 510.446C434.499 503.265 455.01 511.834 465.274 530.096C466.208 531.757 468.682 535.042 470.395 535.739C472.476 535.394 473.744 533.473 474.568 531.63C480.857 517.566 496.163 504.369 512.224 502.916Z" fill="#EDF4FF"/>
    <path d="M503.453 288.116C506.116 284.898 509.038 279.93 511.263 276.468C519.644 263.425 529.809 254.167 545.867 253.099C558.117 251.914 566.716 252.364 576.673 260.336C584.486 266.594 590.533 276.75 591.582 286.72C592.262 293.151 591.127 304.103 588.667 310.069C600.158 311.256 623.619 315.443 622.128 331.585C621.633 336.94 617.504 342.637 615.214 347.491L615.645 347.662C621.633 350.034 636.313 353.507 641.283 356.538C664.299 370.596 613.97 368.224 609.96 368.262C591.849 368.522 573.737 368.58 555.625 368.44C552.279 368.416 543.423 367.848 540.829 368.07C536.648 368.638 529.088 367.944 524.583 368.282C519.634 368.59 514.743 369.95 509.725 369.53C506.574 369.267 505.159 370.487 503.648 367.65C495.698 367.127 486.77 367.602 478.632 367.38C452.601 366.467 426.549 366.129 400.504 366.368C394.666 366.372 344.555 369.957 345.54 359.132C346.165 352.297 374.377 345.826 381.931 344.029C379.504 329.079 384.221 316.88 400.805 314.875C410.307 313.725 416.264 316.033 424.806 319.645C421.637 306.588 420.796 296.948 428.155 284.87C433.672 275.812 442.579 269.329 452.895 266.861C462.403 264.628 477.155 264.785 485.71 269.943C492.656 274.13 499.194 281.254 503.453 288.116Z" fill="#3B2C7E"/>
    <path d="M503.648 367.65C511.957 367.941 520.287 367.715 528.585 367.808C532.014 367.845 537.582 367.644 540.829 368.071C536.648 368.638 529.088 367.944 524.583 368.283C519.634 368.59 514.743 369.951 509.725 369.53C506.574 369.267 505.159 370.487 503.648 367.65Z" fill="#F3F2F4"/>
    <path d="M549.681 256.824C574.106 253.802 591.856 276.754 586.629 300.046C585.741 304.012 584.808 308.732 584.657 312.796C584.312 313.643 586.869 313.912 587.672 314.016C603.166 316.02 628.298 320.176 613.977 341.595C611.967 345.731 608.836 348.736 614.773 351.19C623.608 354.847 635.083 356.83 643.337 361.594L643.785 361.854C641.481 363.098 638.962 363.888 636.364 364.188C629.877 364.893 620.717 364.643 614.021 364.636L579.148 364.595L474.418 363.638C455.919 363.317 437.432 362.415 418.947 362.531C411.493 362.558 403.368 362.442 395.948 362.302C383.828 362.076 359.403 364.479 348.968 359.308C356.518 353.354 365.039 351.303 374.274 349.365C376.513 348.893 385.188 347.536 385.376 344.658C385.663 340.218 384.6 336.003 385.615 331.448C388.873 316.829 408.355 316.729 419.269 321.827C421.938 323.065 425.824 325.673 428.555 326.271C430.138 324.954 429.283 322.076 428.88 320.334C426.118 308.324 424.638 296.046 432.609 285.54C438.566 277.69 446.537 271.287 456.562 269.948C472.982 267.754 485.639 271.449 495.886 284.832C497.954 287.388 501.026 292.968 503.251 294.631C506.123 294.013 509.007 288.09 510.405 285.57C516.605 274.391 524.521 263.17 537.257 259.09C541.41 257.759 545.392 257.315 549.681 256.824Z" fill="#EDF4FF"/>
    <path d="M91.6176 560.338C102.538 558.964 113.49 562.297 120.168 571.454C123.539 576.075 124.971 582.675 127.452 587.952L127.708 588.492C132.584 586.137 137.014 582.589 142.123 580.607C149.91 577.586 159.059 578.266 166.66 581.503C178.399 586.5 175.618 597.823 179.91 609.13C185.276 611.037 220.812 615.46 218.282 626.309C216.195 635.257 194.232 632.502 187.299 632.171C181.024 631.87 172.077 631.535 164.752 631.501L94.4234 631.504C85.6608 631.586 76.8971 631.47 68.1393 631.166C64.2414 631.053 59.1107 631.292 55.4374 630.403C54.652 629.569 54.8116 630.038 54.7924 629.016C57.0866 626.644 73.6976 627.269 77.4597 627.262L108.521 627.259C128.032 627.187 147.543 627.368 167.05 627.796C180.033 628.199 193.058 629.128 206.036 628.93C208.707 628.889 214.513 628.336 214.151 624.798C210.354 618.41 187.178 615.833 180.152 613.259C172.154 609.978 174.898 598.879 171.653 591.876C167.9 583.775 157.429 581.841 149.354 582.76C141.39 583.885 135.343 589.118 128.448 592.71C123.987 595.506 121.539 583.55 120.286 580.214C113.165 561.268 88.5592 558.606 75.5368 572.975C73.8555 574.831 71.0141 576.762 68.5921 577.808C66.35 577.425 64.0182 571.44 62.2463 569.94C59.892 567.95 55.3899 566.819 53.3306 564.447L53.4399 563.934C55.0843 563.257 58.2036 563.63 59.8838 564.098C64.9052 565.5 66.7194 568.425 69.1831 572.5C78.1406 566.73 78.9462 561.607 91.6176 560.338Z" fill="#3B2C7E"/>
    <path d="M454.234 169.83C455.571 169.611 456.34 169.737 457.369 170.531C457.717 174.241 449.073 176.802 446.301 180.434C442.538 185.368 442.801 188.946 440.638 194.501C434.718 191.457 431.033 187.513 424.57 185.874C423.021 186.194 422.126 186.478 420.622 186.986C419.45 187.59 418.39 188.296 417.098 188.29C415.909 187.74 416.322 188.162 415.772 187.03C416.127 183.845 420.096 182.147 422.878 181.811C428.343 181.15 433.822 184.724 437.845 187.98C437.917 187.705 437.992 187.43 438.071 187.157C441.003 177.021 445.334 174.681 454.234 169.83Z" fill="#3B2C7E"/>
    <path d="M105.304 481.728C106.841 481.516 108.251 481.502 109.75 481.882C110.087 483.088 104.449 486.253 103.091 487.272C98.1688 490.96 98.1029 493.527 95.6874 498.449C89.7059 496.391 85.9233 493.134 79.6773 492.491C77.5315 492.556 75.048 493.23 73.3725 492.31C73.1199 491.897 72.665 491.462 73.0327 491.011C77.5352 485.474 88.2971 489.822 93.018 492.522C95.8046 486.291 98.8135 483.752 105.304 481.728Z" fill="#3B2C7E"/>
    <path d="M186.784 450.225C187.528 450.194 187.817 450.232 188.562 450.293L188.87 450.843C188.356 452.563 180.961 456.49 178.631 458.589C175.366 461.528 172.656 464.731 169.498 467.475C164.816 464.994 160.264 462.331 155.091 461.203C153.177 460.988 150.288 461.06 149.922 458.712C153.134 454.343 165.418 460.274 169.154 462C173.335 456.179 179.612 451.448 186.784 450.225Z" fill="#3B2C7E"/>
    <path d="M519.572 185.648C520.731 185.921 520.994 186.551 521.162 187.575C520.338 189.671 515.905 191.543 513.857 192.982C510.843 195.102 510.634 198.313 507.456 200.936C505.354 201.323 498.777 196.335 494.826 195.52C492.673 195.684 491.48 196.336 490.263 194.323C491.176 188.381 502.041 192.48 505.21 195.807C509.482 190.065 512.482 187.439 519.572 185.648Z" fill="#3B2C7E"/>
    <path d="M530.551 136.769C532.308 136.616 535.028 136.501 535.78 138.486C534.389 141.334 528.227 142.452 525.465 146.194C523.674 148.617 523.274 151.923 521.859 152.739C519.354 152.552 515.259 148.95 512.876 147.291C509.961 145.73 506.372 146.434 505.685 143.638C508.416 139.858 516.646 144.345 519.528 146.417C522.29 142.598 526.179 138.673 530.551 136.769Z" fill="#3B2C7E"/>
    <path d="M133.053 415.287L134.196 415.246L134.46 415.687C133.421 417.208 131.375 418.432 130.012 419.751C126.506 423.148 123.59 426.754 121.231 431.03C120.081 433.115 118.739 435.501 117.133 437.234C113.192 435.474 110.75 433.607 106.248 431.878C104.824 431.358 102.653 430.948 102.429 429.332C105.498 426.751 112.624 429.865 115.744 431.505C120.181 424.324 124.356 417.481 133.053 415.287Z" fill="#3B2C7E"/>
</g>

<!-- Animated Balloon -->
<g id="hot-air-balloon">
    <!-- Floating Animation -->
    <animateTransform attributeName="transform" type="translate" values="0 0; 0 -30; 0 0" dur="6s" repeatCount="indefinite" />
    <!-- Swaying Animation (additive) -->
    <animateTransform attributeName="transform" type="rotate" values="-1.5 220 300; 1.5 220 300; -1.5 220 300" dur="4s" additive="sum" repeatCount="indefinite" />

    <path d="M207.953 66.7909C214.598 66.5503 217.132 67.5657 223.585 68.3577C224.729 68.4982 229.3 67.7424 230.765 67.5374C234.008 67.0671 237.297 66.9994 240.557 67.335C245.669 67.8768 250.911 69.3014 255.558 71.5108C258.487 72.9036 261.371 74.5818 264.449 75.6181C268.824 77.0909 273.687 77.255 278.19 78.292C288.095 80.5728 299.108 86.0074 306.986 92.4943C310.568 95.4437 313.743 98.9399 317.587 101.554C321.182 104 325.487 105.507 329.285 107.644C342.378 115.011 353.462 124.386 361.46 137.214C388.832 181.121 378.352 236.876 355.151 280.059C344.217 300.407 329.829 319.429 314.997 337.085C311.423 341.339 287.181 367.883 286.604 370.829C286.574 370.983 286.553 371.14 286.526 371.294C285.467 377.248 285.622 383.575 285.093 389.628C284.231 399.516 282.483 409.62 282.631 419.539C287.592 423.517 287.966 427.632 286.882 433.597C289.09 438.385 296.516 454.672 299.129 457.83C300.634 459.648 302.135 460.312 304.139 461.409C307.31 463.148 307.956 468.074 308.936 471.29C312.514 473.877 316.088 475.125 319.226 478.587C324.52 484.425 325.815 490.776 317.594 494.727C319.92 499.991 325.25 508.655 319.79 513.242C308.904 522.385 292.444 524.973 279.104 528.897C271.562 531.115 261.707 533.928 254.116 534.01C252.945 534 251.775 533.976 250.604 533.941C228.615 533.203 231.529 523.335 232.539 505.613C231.908 506.485 231.233 507.326 230.515 508.129C226.252 512.839 222.173 513.379 217.716 508.826C217.406 507.637 217.264 506.153 217.104 504.916C219.084 500.329 221.833 498.706 224.863 494.847C226.876 492.283 228.625 489.822 230.787 487.327C228.887 481.219 229.787 480.372 233.339 475.115C233.566 469.906 232.923 464.943 232.702 459.744C232.506 455.103 232.718 450.659 232.944 446.021C229.679 441.246 226.238 439.329 228.057 433.002C225.931 427.393 218.587 415.683 215.481 409.9C213.476 406.167 204.91 389.488 203.238 388.093C193.239 379.75 176.989 371.222 165.759 364.161C147.993 353.285 130.581 341.12 115.042 327.226C89.386 304.287 61.9449 264.234 60.62 228.999C59.7881 208.5 65.3584 188.25 76.5577 171.06C79.1854 167.061 85.5757 160.828 87.0584 157.458C92.8272 144.35 97.4169 131.546 107.329 120.691C112.571 114.95 117.938 109.205 125.099 105.788C131.007 103.34 133.667 97.8845 137.978 93.4582C152.027 79.031 169.681 74.9769 188.992 74.4229C196.288 69.2159 198.928 67.5387 207.953 66.7909Z" fill="#3B2C7E"/>
    <path d="M206.61 71.2224C249.515 67.0135 263.064 146.006 265.141 176.993C265.283 179.112 265.408 181.252 265.563 183.372C269.433 240.081 265.927 297.051 255.133 352.857C247.448 349.579 241.19 349.484 233.965 354.033L231.001 356.443C223.614 342.566 215.382 319.314 210.051 304.271C200.754 278.411 192.544 252.172 185.443 225.625C182.47 214.6 178.345 200.173 176.48 188.995C171.407 158.592 167.521 113.409 185.662 86.4396C191.887 77.1854 195.669 73.265 206.61 71.2224Z" fill="#EDF4FF"/>
    <path d="M125.166 110.034L125.552 110.378C124.146 113.567 122.314 116.593 120.86 119.76C99.7374 165.786 115.613 218.723 135.504 262.553C152.698 300.442 179.089 338.344 206.192 370.6C205.091 371.632 203.896 372.675 202.77 373.69C198.433 370.839 195.715 368.211 191.979 364.673C185.871 359.01 179.805 352.84 173.948 346.893C149.812 322.433 127.851 298.669 110.048 269.067C85.5531 228.338 78.387 181.066 101.697 137.944C106.64 128.799 116.035 115.348 125.166 110.034Z" fill="#EDF4FF"/>
    <path d="M273.675 81.6904C278.911 82.8604 290.274 88.1077 294.719 90.7925C333.318 114.105 346.418 156.272 344.148 199.197C342.231 235.501 332.959 263.485 317.166 296.005C308.166 314.534 298.903 329.487 288.494 347.098C285.829 351.637 283.014 356.173 281.063 361.057L275.549 358.593C277.691 354.525 279.267 350.663 280.991 346.449C304.169 289.793 323.833 230.828 317.589 168.708C315.346 146.398 308.931 124.006 295.623 105.622C289.257 96.8279 281.309 89.3655 273.675 81.6904Z" fill="#EDF4FF"/>
    <path d="M292.594 472.51C306.052 472.011 305.236 474.595 310.069 486.342L316.451 501.809C302.76 500.903 285.423 506.112 272.056 509.438C264.002 511.44 255.416 513.809 247.512 516.318C243.96 517.446 240.194 519.329 236.56 520.69C236.206 514.072 236.453 505.517 236.492 498.767C236.463 495.304 236.456 492.19 236.626 488.718C240.386 485.724 244.082 484.849 248.652 483.464C246.697 486.862 243.639 493.318 244.62 497.218C246.666 505.073 255.571 503.391 258.554 497.095C261.129 491.661 259.653 485.519 257.863 480.118C263.29 478.666 269.391 477.107 274.847 476.023C273.432 482.791 271.113 500.305 284.64 494.043C289.559 491.767 289.106 483.43 288.175 479.028C287.874 477.606 286.637 474.482 286.891 473.224C288.593 472.599 290.735 472.619 292.594 472.51Z" fill="#EDF4FF"/>
    <path d="M243.234 354.542C248.577 354.327 252.17 356.06 256.505 358.907C258.127 364.403 258.641 373.225 259.091 379.022C255.069 381.736 252.389 383.168 247.657 384.132C244.615 384.265 242.294 384.214 239.287 383.937C236.789 378.537 233.154 366.946 231.546 361.139C235.371 357.66 238.256 355.824 243.234 354.542Z" fill="#EDF4FF"/>
    <path d="M259.115 383.845L259.582 384.07C259.947 386.5 259.971 389.423 260.293 391.997C261.48 401.485 261.898 410.57 262.143 420.123C258.504 420.837 254.87 421.572 251.241 422.331L249.188 415.953C246.095 407.066 243.157 396.771 240.239 387.656C249.045 388.008 251.075 387.307 259.115 383.845Z" fill="#EDF4FF"/>
    <path d="M235.921 387.67C236.814 388.74 246.84 419.31 248.325 423.309C244.645 424.71 241.528 425.732 237.781 426.905L236.671 424.745C231.117 413.937 226.637 401.448 221.191 390.979C227.909 391.72 230.334 391.341 235.921 387.67Z" fill="#EDF4FF"/>
    <path d="M268.899 443.693C270.079 444.199 275.076 459.221 276.304 461.757C270.115 462.909 263.689 464.741 257.631 466.426L254.138 467.349C253.043 462.109 251.672 453.633 251.164 448.448C257.765 446.968 262.522 445.847 268.899 443.693Z" fill="#EDF4FF"/>
    <path d="M226.604 361.33C229.3 362.178 233.97 380.775 234.774 384.159C230.153 386.726 226.995 388.089 221.582 387.108C217.689 385.129 214.69 376.414 212.551 371.84C217.825 366.396 218.488 363.641 226.604 361.33Z" fill="#EDF4FF"/>
    <path d="M294.2 463.272C300.539 462.742 301.651 462.844 304.433 468.716C286.921 467.359 270.98 472.23 254.312 477.015C249.809 478.307 245.387 480.057 241.109 481.961C238.819 482.979 236.82 484.962 234.456 484.142C234.028 483.643 233.686 483.253 233.525 482.593C233.306 481.694 233.536 481.11 234.07 480.392C237.837 475.32 268.135 467.356 275.378 465.903C281.561 464.663 287.933 463.976 294.2 463.272Z" fill="#F3F2F4"/>
    <path d="M275.035 422.263C282.138 421.648 282.671 423.534 283.886 430.234C282.684 429.817 280.816 429.208 279.617 428.989C270.142 427.243 246.787 433.853 239.111 439.158L235.458 442.46C232.781 439.565 232.46 438.71 231.114 435.049C239.821 427.807 263.821 422.895 275.035 422.263Z" fill="#EDF4FF"/>
    <path d="M272.175 379.483C272.331 379.62 272.486 379.76 272.642 379.9C273.035 391.877 272.753 406.301 272.634 418.315C270.994 418.561 265.989 419.562 264.836 418.728C264.847 404.65 264.373 395.606 262.951 381.507C266.682 380.922 268.515 380.55 272.175 379.483Z" fill="#EDF4FF"/>
    <path d="M283.433 436.889C284.894 437.381 293.6 456.258 294.76 458.952C291.599 459.252 288.449 459.666 285.316 460.186L279.929 461.074C278.023 454.344 275.391 449.344 273.623 441.79L283.433 436.889Z" fill="#EDF4FF"/>
    <path d="M208.65 390.318C211.326 390.513 214.384 390.489 217.094 390.523C218.115 392.345 234.739 427.93 234.728 428.251L234.059 428.832C232.928 429.283 231.794 429.898 230.702 430.459C227.564 425.917 224.417 419.518 221.736 414.494C217.424 406.41 213.062 398.351 208.65 390.318Z" fill="#EDF4FF"/>
    <path d="M236.886 447.901C240.233 448.715 243.742 449.04 247.17 449.248C247.735 455.356 249.368 462.749 250.579 468.898L247.386 469.94C244.529 470.874 239.968 472.688 237.333 473.957C237.112 465.2 237.244 456.75 236.886 447.901Z" fill="#EDF4FF"/>
    <path d="M282.436 375.006C282.733 375.074 282.578 374.996 282.823 375.351C282.467 384.436 282.061 393.319 281.181 402.384C280.737 406.95 280.475 413.67 279.219 417.946C278.437 418.339 277.503 418.031 276.44 417.918L275.717 417.901C275.156 416.948 275.659 410.953 275.736 409.483C276.302 398.696 275.989 387.96 276.158 377.163C279.166 376.564 279.825 376.404 282.436 375.006Z" fill="#EDF4FF"/>
    <path d="M261.48 356.299C262.408 356.193 264.742 355.903 265.547 356.169C270.667 357.861 272.025 363.798 272.345 368.563C272.487 370.678 272.541 372.859 272.05 374.92C271.789 376.014 271.456 375.877 270.532 376.349C267.572 377.039 265.674 377.094 262.657 377.149C262.254 373.82 259.72 358.425 260.42 356.689L261.48 356.299Z" fill="#EDF4FF"/>
    <path d="M280.289 474.339C286.259 474.623 288.306 487.091 282.47 491.295C274.629 493.162 277.204 481.821 277.926 477.504C278.253 475.539 278.717 475.289 280.289 474.339Z" fill="#EDF4FF"/>
    <path d="M209.449 373.225C210.836 373.98 214.699 384.432 215.684 386.661C213.962 386.538 212.189 386.333 210.466 386.162L210.066 386.104C199.887 384.528 202.852 377.617 209.449 373.225Z" fill="#EDF4FF"/>
    <path d="M253.207 481.783C257.405 484.425 258.43 496.053 251.181 498.729C249.533 498.2 247.576 497.52 247.898 495.438C248.556 491.172 251.489 485.83 253.207 481.783Z" fill="#EDF4FF"/>
    <path d="M232.263 489.723L232.611 490.201C232.97 496.21 231.202 503.921 225.579 507.165C224.072 508.033 223.525 508.019 221.907 507.527C221.413 506.905 221.095 506.409 220.657 505.756C220.634 504.974 220.495 504.687 221.133 504.02C226.297 498.63 228.874 496.381 232.263 489.723Z" fill="#EDF4FF"/>
    <path d="M275.004 362.318C276.357 362.865 277.624 363.603 278.767 364.513C281.25 366.516 283.125 369.411 280.599 372.207C278.801 373.105 277.779 373.372 275.886 373.929L275.004 362.318Z" fill="#EDF4FF"/>
</g>

</g>
<defs>
<clipPath id="clip0_624_726">
<rect width="700" height="700" fill="#EDF4FF"/>
</clipPath>
</defs>
</svg>
