<svg width="700" height="700" viewBox="0 0 700 700" fill="none" xmlns="http://www.w3.org/2000/svg">
<g clip-path="url(#clip0_703_490)">
<g id="illustrator-content">
    <animateTransform attributeName="transform" type="translate" values="0 0; 0 -10; 0 0" dur="9s" repeatCount="indefinite" />
<path d="M0 0H700V700H0V0Z" fill="#FEF3DD"/>
<path d="M511.653 99.6139C491.179 88.028 503.556 66.7737 522.088 63.2631C542.004 59.49 562.728 67.4577 578.153 79.5467C580.733 77.7051 582.531 76.1089 585.645 75.4663C582.996 77.3103 581.366 78.5114 578.942 80.6175C584.486 88.3582 587.409 93.6882 589.805 102.949C594.491 121.066 591.421 149.191 565.39 143.987C563.035 143.518 560.749 142.745 558.588 141.687C558.161 143.557 557.744 145.43 557.337 147.306C566.221 151.937 568.022 167.167 567.796 175.978C578.197 182.532 591.92 191.439 601.012 199.46C620.361 216.526 639.987 241.188 646.222 266.632C652.398 291.833 634.583 303.823 616.171 315.05C617.203 325.177 617.401 334.623 618.239 344.487C613.703 344.849 609.161 345.157 604.618 345.406C604.95 351.271 606.324 357.779 607.305 363.624C608.74 372.289 610.08 380.967 611.321 389.662C615.641 420.055 619.062 450.567 621.578 481.165C622.891 495.882 623.379 510.952 624.152 525.69C625.167 542.886 626.025 560.092 626.722 577.305C627.054 587.409 627.71 597.943 626.452 607.992C626.209 609.95 630.506 622.624 631.186 626.377C620.313 633.531 614.325 640.203 600.534 638.128C599.307 637.943 598.91 637.509 598.288 636.583C598.22 632.772 603.815 630.684 605.849 628.346C608.552 625.235 609.827 623.465 613.078 620.85C612.456 616.831 611.468 611.878 611.075 607.947C603.022 609.947 595.485 611.201 587.521 612.9C574.998 585.744 565.014 547.699 558.028 518.39L543.348 455.393C541.27 446.281 539.044 437.271 537.476 428.049C537.236 426.658 536.946 424.823 536.573 423.5L536.125 423.462C536.088 424.484 536.043 425.383 535.951 426.402C537.26 436.331 539.824 446.691 541.167 456.712C542.039 463.193 544.486 469.834 544.599 476.479C544.677 479.914 543.939 483.39 543.474 486.777C538.392 523.913 533.89 561.172 525.547 597.769C525.185 599.361 525.082 600.961 524.713 602.502C523.995 605.493 523.698 606.259 520.806 605.866L520.447 605.616C518.188 605.524 512.442 605.257 510.59 605.924L504.855 605.982L503.535 606.536C496.282 606.184 486.056 606.505 478.529 606.471C478.252 599.645 477.586 592.625 477.289 585.717C476.848 572.951 476.496 560.181 476.232 547.408C476.024 539.492 475.597 531.61 475.457 523.701L473.58 414.23C473.31 402.346 473.43 391.556 472.914 379.507C457.499 384.956 441.178 386.377 427.919 374.763C394.529 345.516 418.845 299.544 459.932 296.318C462.537 295.904 465.401 296.034 468.06 296.066C468.354 290.685 468.532 285.427 468.655 280.052C468.733 276.71 468.313 270.084 468.921 267.141C469.602 257.918 470.275 250.748 471.563 241.569C464.591 245.738 458.507 249.415 450.604 251.292C436.563 254.627 424.153 251.611 412.918 242.75C407.159 238.21 404.018 233.559 399.024 228.508L368.549 198.011C363.443 192.844 358.415 187.103 353.086 182.216C354.156 186.943 355.903 192.253 357.321 196.932L366.041 225.345C378.837 267.925 390.944 310.708 402.363 353.678C404.667 362.568 406.889 371.478 409.035 380.41C412.125 392.991 414.914 405.139 415.844 418.158C416.466 426.908 413.287 432.25 405.829 436.738C398.457 441.174 390.212 444.821 382.331 448.301C369.014 454.19 355.554 459.761 341.964 465.001C309.18 477.818 276.02 489.651 242.528 500.486C227.762 505.33 212.964 510.251 197.931 514.196C185.735 517.398 173.402 521.039 160.677 519.647C158.167 517.412 156.797 515.409 155.405 512.33C150.234 500.883 145.919 488.766 141.883 476.892C136.273 460.359 130.905 443.745 125.779 427.055C109.892 375.023 94.8712 322.732 80.7225 270.201C73.7543 245.285 67.228 220.246 61.1461 195.098C59.203 187.292 57.4119 179.448 55.7734 171.572C54.8423 167.179 53.6703 162.571 53.3586 158.082C52.8657 150.988 59.3116 139.965 63.9054 134.817C69.6807 128.345 91.4416 122.497 100.261 119.818C108.055 117.45 115.784 114.806 123.632 112.627C168.866 100.311 214.949 91.3489 261.502 85.8149C277.213 83.8489 292.97 81.4802 308.803 80.7525C311.783 80.6155 314.711 80.783 316.998 82.9035C326.91 92.0923 336.646 133.884 343.123 148.421C345.457 146.707 347.925 145.298 350.393 143.79C364.714 135.035 379.904 126.683 395.65 120.788C384.682 132.905 366.953 150.298 353.873 160.234C358.931 163.061 364.629 165.496 369.951 167.855C390.048 176.766 409.739 188.067 429.837 196.746L430.244 196.523C433.193 194.899 435.723 192.83 438.536 191.047C457.519 179.019 480.884 171.654 502.742 167.211C503.487 163.091 504.297 159.038 504.67 154.865C503.316 153.959 501.812 153.291 501.59 151.712C501.211 149.053 501.86 138.076 502.708 136.081C505.35 129.883 506.293 133.3 506.16 125.541C508.577 121.966 509.479 120.697 510.648 116.537C513.143 107.704 507.363 91.9231 520.338 89.7746C538.839 86.7114 564.184 97.5484 568.265 117.425C570.397 127.802 567.755 134.149 559.829 140.755C570.702 145.072 583.434 144.351 587.856 131.27C591.732 119.806 590.116 104.479 585.098 93.64C579.479 80.2556 569.273 73.4319 555.738 68.6399C542.879 64.0882 527.574 61.523 514.466 67.4737C505.063 71.7441 499.738 81.5065 504.273 91.5786C505.654 94.638 509.247 97.2412 511.653 99.6139Z" fill="#4C5610"/>
<path d="M455.653 183.36C468.135 177.665 488.944 171.233 502.684 168.508C503.104 182.046 510.426 183.239 521.514 185.855C517.583 204.07 517.091 220.518 520.334 238.85C521.322 244.419 520.765 249.602 525.144 253.68C525.954 257.456 526.805 260.038 528.209 263.656C527.905 260.068 526.965 257.029 526.381 253.564L535.736 254.702C535.814 256.885 535.76 258.952 536.43 261.024L536.741 261.111C537.335 259.063 537.219 257.068 537.25 254.919C539.82 255.102 542.449 255.329 545.022 255.343C545.74 258.552 546.444 262.03 547.391 265.158C547.494 262.158 546.978 258.261 546.376 255.306L553.461 255.303C554.125 257.64 555.147 259.861 556.486 261.885C555.834 259.714 555.177 257.366 554.388 255.259C555.57 254.957 556.876 254.655 558.031 254.301C556.65 243.37 554.405 232.25 553.673 221.05C552.904 209.346 552.518 197.433 552.487 185.713C558.869 184.347 563.753 183.076 567.824 177.358C588.677 188.677 614.592 210.854 627.44 230.894C603.261 236.053 589.326 245.455 577.025 266.99C566.904 256.126 567.103 250.758 562.218 238.078C563.979 251.746 571.156 266.794 583.748 273.545C583.567 272.549 578.85 268.349 577.838 267.361C590.605 248.247 604.133 236.981 627.484 232.325C627.792 232.264 628.1 232.205 628.407 232.147C630.96 236.349 633.23 240.164 635.558 244.488C631.996 245.163 628.236 245.723 624.716 246.746C612.606 250.264 603.319 256.617 593.855 264.718C591.223 266.971 587.928 271.97 585.689 273.486C581.161 276.556 575.131 279.517 570.251 282.06C565.383 284.634 560.561 287.298 555.789 290.05C541.478 298.284 527.393 308.834 514.89 319.5C510.802 322.987 504.557 327.232 501.959 321.008C500.493 317.499 497.554 313.589 495.421 310.446C488.585 302.431 480.877 298.141 470.658 296.228C469.81 294.237 470.839 275.388 470.634 270.946C471.44 253.266 473.795 235.225 479.309 218.28C480.707 213.982 484.073 210.642 484.128 205.743C479.948 213.532 476.595 219.337 474.759 228.273C462.745 217.906 456.894 209.323 455.646 192.702C455.444 189.591 455.444 186.47 455.653 183.36Z" fill="#FEF3DD"/>
<path d="M468.06 296.067C468.354 290.686 468.532 285.427 468.655 280.052C468.733 276.71 468.313 270.084 468.921 267.142L469.007 274.958C469.13 275.774 469.246 276.566 469.407 277.377C469.957 277.505 469.646 277.514 470.306 277.135C470.316 274.762 470.316 273.301 470.634 270.946C470.839 275.388 469.81 294.237 470.658 296.228C467.086 296.377 463.507 296.407 459.932 296.318C462.537 295.905 465.401 296.034 468.06 296.067Z" fill="#4C5610"/>
<path d="M469.007 274.958C469.13 275.774 469.246 276.566 469.407 277.377C469.957 277.505 469.646 277.514 470.306 277.134C470.336 279.424 470.695 285.4 469.656 287.016L469.202 286.783C468.716 284.244 468.973 277.9 469.007 274.958Z" fill="#4C5610"/>
<path d="M535.951 426.402C535.397 424.515 533.624 414.357 534.574 413.253C534.933 414.049 536.491 422.516 536.573 423.5L536.126 423.462C536.088 424.484 536.043 425.383 535.951 426.402Z" fill="#4C5610"/>
<path d="M265.558 103.086C268.897 102.949 273.365 101.515 276.521 101.287C281.616 100.918 297.04 97.3961 301.138 98.2946C306.459 100.642 309.618 106.173 312.026 111.247C318.538 124.972 327.427 142.641 330.145 157.629C326.3 161.192 322.524 164.61 319.753 169.132C304.313 154.411 300.972 184.076 282.913 175.03C284.017 176.864 284.984 178.429 286.37 180.188C294.33 190.289 313.58 195.493 321.662 182.755C322.44 181.529 323.247 179.075 323.755 177.629C327.418 176.19 331.332 175.073 335.104 173.919L335.193 174.355C336.433 180.231 338.785 187.761 340.457 193.689L351.2 231.359L359.957 263.406C368.125 292.473 376.582 321.424 383.428 350.848C385.366 359.174 386.935 367.582 388.637 375.959C390.141 383.363 395.907 405.856 392.089 412.258C385.574 423.182 276.795 461.289 259.366 466.898C246.508 471.037 233.402 474.961 220.183 477.743C213.684 479.11 206.849 480.214 200.202 479.811C187.699 470.514 166.071 400.6 160.565 383.879C155.839 368.194 150.596 352.464 145.797 336.707C132.212 291.866 119.187 246.858 106.724 201.693C104.044 191.813 101.455 181.909 98.9584 171.982C97.3167 165.491 94.2344 154.476 94.2429 148.036C99.2779 144.15 104.827 142.559 110.785 140.442C113.537 139.326 118.411 138.142 121.415 137.109C131.966 133.483 142.353 131.053 153.068 128.247C177.177 121.947 201.404 116.111 225.738 110.741C239.304 107.867 252.081 105.673 265.558 103.086Z" fill="#FEF3DD"/>
<path d="M150.944 145.133C158.129 148.686 169.387 156.027 176.485 160.365L207.576 178.956C220.346 186.644 233.147 194.514 246.376 201.528C250.018 203.458 259.316 202.679 264.025 203.033C279.158 204.17 295.562 211.185 306.811 221.408C325.302 239.512 329.653 256.877 330.322 281.329C335.158 280.273 339.158 279.284 344.152 279.207C350.164 295.101 355.417 311.366 360.562 327.565C366.167 345.215 374.36 368.167 377.156 386.196C366.317 391.183 352.851 396.136 341.472 399.923C334.296 402.374 325.732 405.576 318.292 406.612C314.608 401.27 307.7 381.852 305.373 375.047C301.131 362.643 295.625 348.011 292.191 335.552C264.297 346.596 230.869 339.824 210.181 317.873C196.856 303.496 189.669 284.486 190.149 264.889C180.623 268.34 171.188 272.72 161.739 276.451C155.697 278.837 149.245 281.687 142.865 283.021C142.51 272.326 143.068 262.321 143.618 251.698L145.521 217.934C147.018 194.447 148.367 168.322 150.944 145.133Z" fill="#4C5610"/>
<path d="M252.62 204.539C283.85 201.989 311.856 218.713 323.295 247.797C327.623 258.8 328.861 270.178 328.735 281.882C316.022 284.542 303.467 287.907 291.128 291.963C287.672 293.119 283.187 294.482 280.058 296.064C280.887 300.619 282.927 306.816 284.35 311.291C286.813 318.829 289.189 326.396 291.475 333.989C286.685 335.864 282.965 336.862 278.035 337.984C276.399 338.298 274.751 338.54 273.094 338.711C253.584 340.871 232.781 334.795 217.825 322.615C191.18 301.01 181.49 255.766 204.648 228.275C215.079 215.892 236.508 205.927 252.62 204.539Z" fill="#FEF3DD"/>
<path d="M69.0614 133.105C73.3899 130.45 78.2585 129.493 83.0392 127.871C94.1397 124.107 105.429 120.964 116.734 117.889C122.547 116.307 128.245 114.368 134.088 112.835C172.158 102.921 210.714 94.9779 249.603 89.0388C261.608 87.2625 273.763 86.2094 285.812 84.7479C291.039 84.1142 310.707 80.8517 314.824 82.7162C323.379 86.5905 337.83 137.612 342.48 148.91C340.645 151.029 333.879 155.449 331.119 157.349C328.936 144.308 314.432 101.533 301.362 97.6039L301.023 98.0783L301.138 98.2947C297.04 97.3961 281.616 100.918 276.521 101.287C273.365 101.515 268.897 102.949 265.558 103.086L264.281 102.337C237.456 106.266 210.844 111.531 184.544 118.115C157.619 124.579 135.639 130.53 109.272 140.105C104.647 141.894 97.0248 144.361 93.5279 147.632C92.2219 163.572 113.37 230.306 118.836 249.257C127.641 279.881 136.77 310.41 146.221 340.841C150.41 354.365 155.256 371.284 159.952 384.439C165.579 402.92 171.9 421.042 178.336 439.838C181.98 448.725 189.387 475.146 195.743 480.833C201.695 486.162 247.184 472.835 254.373 470.832C296.033 459.204 336.759 443.816 375.614 424.802C390.476 417.529 397.506 417.69 394.311 398.768C381.37 322.194 356.303 248.581 336.48 173.716L342.665 169.521C344.781 173.106 349.692 177.275 351.022 181.03C352.974 186.556 354.768 192.82 356.494 198.442L366.847 232.081C379.497 273.492 391.265 315.168 402.145 357.079C404.397 365.907 406.557 374.76 408.618 383.633C411.315 395.042 413.971 406.957 414.627 418.711C414.753 422.823 414.278 427.465 411.048 430.394C400.49 439.961 384.727 446.028 371.82 451.524C358.507 457.167 345.105 462.602 331.623 467.831C294.85 482.098 256.398 496.108 218.196 506.078C210.855 507.996 202.666 510.163 195.346 510.494C191.097 510.686 178.468 509.223 176.218 506.041C172.19 500.343 166.266 484.097 164.125 477.401C158.114 458.606 152.577 439.564 146.879 420.738C135.015 381.442 123.403 342.07 112.047 302.626L85.7756 209.073C80.0891 188.112 74.0991 167.101 70.2098 145.687C69.4391 141.445 68.9619 137.431 69.0614 133.105Z" fill="#FEF3DD"/>
<path d="M264.281 102.337C264.795 102.133 269.132 101.518 269.895 101.402C276.743 100.357 283.608 99.4279 290.487 98.6158C293.009 98.2948 299.226 96.9546 301.362 97.604L301.023 98.0785L301.138 98.2948C297.04 97.3962 281.616 100.918 276.521 101.287C273.365 101.516 268.897 102.949 265.558 103.086L264.281 102.337Z" fill="#4C5610"/>
<path d="M635.421 245.87C635.612 245.83 636.084 245.88 636.306 245.893C636.491 246.09 636.74 246.348 636.863 246.52C638.234 248.469 639.232 251.371 640.24 253.402C643.733 260.425 647.086 272.188 645.911 279.936C639.871 319.624 566.778 330.215 534.916 335.35C526.822 336.655 508.419 338.569 503.118 342.71C503.641 339.011 503.556 335.214 503.556 331.477C503.494 331.083 503.419 330.617 503.337 330.081C499.563 327.153 496.744 327.069 493.182 323.319C497.663 323.63 507.107 326.428 510.699 324.049C515.775 320.686 520.974 316.064 525.824 312.251C533.733 306.069 541.946 300.283 550.43 294.914C560.178 288.822 570.291 283.62 580.532 278.444C585.594 275.886 592.385 273.337 596.917 270.288C594.375 270.831 589.012 272.816 586.322 273.698C600.906 259.309 614.564 248.832 635.421 245.87Z" fill="#FEF3DD"/>
<path d="M459.307 297.499C475.361 295.857 490.007 303.257 498.2 317.207C499.3 319.079 500.339 320.991 501.389 322.892C498.603 322.637 496.245 322.045 493.835 323.276C492.454 326.225 500.162 329.377 502.435 330.508C502.568 334.133 502.616 338.355 501.83 341.882C497.745 360.206 481.824 375.809 464.273 380.925C452.45 384.005 439.387 381.889 429.587 374.483C421.22 368.187 415.751 358.777 414.425 348.393C410.751 320.502 433.173 300.583 459.307 297.499Z" fill="#FEF3DD"/>
<path d="M459.655 305.268C472.972 304.222 474.879 316.496 464.119 320.543C452.812 322.845 448.872 310.315 459.655 305.268Z" fill="#4C5610"/>
<path d="M458.647 355.219C462.55 354.805 466.932 355.506 468.894 359.382C469.612 360.776 469.728 362.407 469.215 363.887C468.33 366.392 466.419 367.493 464.222 368.614C454.026 370.777 450.006 360.554 458.647 355.219Z" fill="#4C5610"/>
<path d="M432.045 319.285C434.229 319.152 434.947 319.335 436.892 320.324C440.402 322.109 442.043 326.427 439.814 329.859C438.406 332.032 436.577 332.334 434.26 332.907C431.102 332.946 427.578 331.78 426.207 328.681C425.582 327.254 425.568 325.634 426.166 324.197C427.27 321.496 429.502 320.316 432.045 319.285Z" fill="#4C5610"/>
<path d="M436.174 347.97C439.076 347.925 442.07 348.65 443.663 351.326C444.476 352.704 444.698 354.351 444.288 355.896C443.485 358.982 441.673 359.953 439.165 361.508C437.818 361.744 436.608 361.901 435.289 361.426C433.563 360.821 432.165 359.533 431.416 357.865C430.555 355.947 430.555 353.753 431.419 351.839C432.445 349.528 433.966 348.875 436.174 347.97Z" fill="#4C5610"/>
<path d="M483.044 333.996C493.042 333.75 495.739 344.179 486.244 346.12C482.754 346.308 478.895 345.362 477.682 341.651C477.196 340.203 477.36 338.617 478.129 337.3C479.295 335.302 480.946 334.586 483.044 333.996Z" fill="#4C5610"/>
<path d="M343.253 162.538C346.015 162.448 352.604 162.034 354.898 162.68C361.522 164.546 369.527 168.678 375.693 171.732L407.07 187.293C412.655 190.129 424.101 196.223 429.475 198.194C434.007 196.088 442.193 190.709 447.026 187.95L446.875 188.218C443.676 194.076 444.442 207.595 446.339 213.998C449.904 226.035 458.462 235.484 469.318 241.475L463.791 244.695C454.251 250.381 441.523 252.593 430.65 250.21C414.781 246.8 405.586 233.012 394.779 222.329C380.03 207.747 365.658 192.824 351.425 177.736C348.4 174.526 345.256 171.463 342.901 167.702C345.738 168.229 347.659 168.623 350.523 168.744C345.167 166.264 344.165 167.12 338.68 162.941C340.27 162.739 341.661 162.644 343.253 162.538Z" fill="#FEF3DD"/>
<path d="M551.223 186.401C551.954 188.404 551.024 205.704 551.137 209.135C551.653 225.013 554.032 238.791 556.955 254.283C544.787 254.178 539.967 254.137 527.81 252.265C526.569 252.065 523.834 251.738 523.554 250.302C521.534 240.053 520.246 227.978 520.164 217.616C520.075 206.921 519.972 197.024 522.795 186.851C533.036 187.588 540.88 188.371 551.223 186.401Z" fill="#FEF3DD"/>
<path d="M614.301 316.196L614.499 316.232C615.487 317.286 616.359 340.666 616.396 343.39C601.156 344.668 585.648 345.283 570.391 346.145L503.487 350.431C502.137 350.543 502.195 350.759 501.183 350.239C500.664 348.041 502.499 345.205 503.566 343.031C511.571 339.095 526.521 338 535.811 336.405C548.157 334.287 560.998 332.555 573.262 329.774C582.664 327.563 591.92 324.77 600.978 321.409C605.52 319.729 609.653 317.721 614.301 316.196Z" fill="#FEF3DD"/>
<path d="M557.057 148.859C560.051 150.525 563.425 155.659 564.228 159.123C565.199 162.797 568.022 174.26 565.759 177.498C560.28 185.337 546.629 186.119 537.834 186.287C528.271 186.47 517.525 185.667 508.867 180.792C506.615 179.267 505.859 178.337 504.328 176.208C503.026 166.874 504.321 163.95 505.962 154.969C506.502 155.277 507.035 155.597 507.561 155.928C511.058 158.128 511.413 159.3 512.292 163.099C518.892 162.286 521.192 160.135 527.184 164.446C529.802 163.684 532.109 162.405 534.697 161.737C536.559 161.152 541.406 161.689 542.934 160.483C546.482 157.685 548.102 154.954 552.863 153.686C555.133 153.083 556.182 151.013 557.057 148.859Z" fill="#FEF3DD"/>
<path d="M522.854 90.7123C525.417 90.5298 527.994 90.5599 530.554 90.8015C539.639 91.7295 551.537 95.9111 558.007 102.638C562.027 106.815 553.971 111.878 551.701 114.888C550.454 116.541 547.114 122.776 545.891 123.609C541.034 122.182 539.188 123.035 534.71 124.84C529.901 117.364 526.008 118.755 518.106 120.959C514.797 121.882 512.531 119.058 512.682 116.106C512.945 110.819 512.367 101.008 513.676 96.1346C513.933 95.1697 514.415 94.2793 515.078 93.5356C517.248 91.1556 519.945 90.9034 522.854 90.7123Z" fill="#FEF3DD"/>
<path d="M530.561 105.489C531.05 107.122 527.741 111.655 526.637 114.421C527.437 115.142 528.958 116.326 529.337 117.241L528.903 117.391C526.876 116.546 526.425 116.197 524.682 114.947C525.725 112.315 528.664 107.539 530.561 105.489Z" fill="#4C5610"/>
<path d="M521.421 101.312L522.091 101.681C522.317 102.721 521.411 104.312 520.943 105.381L520.769 105.522L520.529 104.965C520.652 103.207 520.751 102.951 521.421 101.312Z" fill="#4C5610"/>
<path d="M390.517 124.115L390.684 124.247L390.667 124.725C385.369 129.938 379.815 136.453 374.216 141.225C366.936 147.427 358.333 156.262 350.485 161.347C347.392 161.622 339.941 160.249 338.902 163.282C339.505 165.42 341.434 166.264 343.318 167.455C334.678 172.579 334.374 173.756 324.792 176.23C324.149 176.288 323.472 176.344 322.853 176.122C321.878 175.772 320.716 174.859 320.316 173.879C319.765 172.531 319.982 171.308 320.551 170.001C326.518 156.304 375.423 130.03 390.517 124.115Z" fill="#FEF3DD"/>
<path d="M454.207 183.854L454.518 184.177C453.493 191.817 454.299 199.591 456.873 206.857C459.843 215.138 466.211 225.337 474.428 229.241C473.461 233.102 472.592 237.296 471.714 241.202C470.754 240.722 469.704 240.034 468.775 239.46C462.492 235.635 457.188 230.4 453.277 224.169C446.985 214.051 444.921 199.223 447.539 187.869C449.767 186.135 451.709 185.186 454.207 183.854Z" fill="#FEF3DD"/>
<path d="M309.913 166.495C313.776 166.221 316.178 167.064 318.935 169.81C318.731 171.54 318.639 173.21 318.529 174.945L322.363 177.349C319.105 188.539 311.385 190.528 300.872 188.237C294.288 186.255 290.606 183.653 286.328 178.342C300.928 178.578 299.139 170.031 309.913 166.495Z" fill="#FEF3DD"/>
<path d="M627.426 618.307C627.71 618.683 629.542 624.972 629.88 626.018C625.215 629.415 618.84 633.561 613.641 636.015C610.582 637.458 605.254 637.352 601.819 637.369C600.831 637.423 600.896 637.44 599.973 637.085C598.261 634.036 605.568 630.946 607.164 629.08C609.161 626.739 610.251 624.562 612.862 622.753C618.714 622.641 622.976 622.299 627.426 618.307Z" fill="#FEF3DD"/>
<path d="M623.967 605.049L624.586 605.083C625.075 608.477 626.38 613.645 627.177 617.155C622.33 620.584 621.684 620.765 615.658 621.667L615.005 621.681C613.905 620.484 612.271 609.889 612.042 607.684C615.979 606.871 620.03 605.92 623.967 605.049Z" fill="#FEF3DD"/>
<path d="M562.478 116.141C566.183 116.239 566.966 120.731 564.936 123.249C563.186 125.417 561.466 125.389 558.937 125.775C557.508 125.748 555.967 125.638 554.531 125.564C556.63 120.969 558.089 118.711 562.478 116.141Z" fill="#FEF3DD"/>
<path d="M528.066 132.036L528.425 132.406C525.954 134.603 524.699 134.009 521.794 133.167L521.24 132.72L521.51 132.467C522.495 132.509 523.479 132.546 524.467 132.577C526.241 132.649 526.357 132.691 528.066 132.036Z" fill="#FEF3DD"/>
<path d="M510.59 605.924C512.442 605.257 518.188 605.524 520.447 605.616L520.806 605.866L520.017 606.15C518.848 609.239 520.984 628.698 518.926 630.848C513.977 632.516 496.433 630.697 490.356 631.33C489.108 631.46 486.739 630.745 485.721 629.802C485.013 625.922 500.463 619.962 503.621 618.96C503.689 614.889 503.429 610.313 503.535 606.536L504.855 605.982L510.59 605.924Z" fill="#4C5610"/>
<path d="M510.59 605.924C513.023 606.02 515.963 605.948 518.437 605.958C518.547 609.69 518.291 614.424 518.171 618.249C513.741 618.242 509.308 618.276 504.878 618.345C504.923 614.226 504.913 610.104 504.854 605.982L510.59 605.924Z" fill="#FEF3DD"/>
<path d="M506.83 619.452C510.32 619.189 514.722 619.199 518.181 619.37C518.332 622.873 518.629 626.777 518.243 630.225L498.665 630.243C494.067 630.294 490.571 630.506 486.039 629.504C491.405 625.269 499.95 620.252 506.83 619.452Z" fill="#FEF3DD"/>
</g>
</g>
<defs>
<clipPath id="clip0_703_490">
<rect width="700" height="700" fill="white"/>
</clipPath>
</defs>
</svg>
