<svg width="700" height="700" viewBox="0 0 700 700" fill="none" xmlns="http://www.w3.org/2000/svg">
<path d="M447.934 328.758C431.702 353.916 399.936 461.924 360.652 538.989" stroke="#064E42" stroke-width="28" stroke-linecap="round" stroke-linejoin="round"/>
<path d="M360.629 538.988C315.569 505.482 258.956 448.868 218.087 394.903" stroke="#064E42" stroke-width="28" stroke-linecap="round" stroke-linejoin="round"/>
<path d="M218.111 394.903C203.52 473.13 203.142 526.034 194.595 640.364" stroke="#064E42" stroke-width="28" stroke-linecap="round" stroke-linejoin="round"/>
<path d="M446.817 329.733C475.849 331.84 484.081 333.45 509.878 330.701" stroke="#064E42" stroke-width="28" stroke-linecap="round" stroke-linejoin="round"/>
<path d="M396.2 100.519C297.248 35.3503 226.074 62.9618 198.271 81.1431C59.3844 171.987 128.893 364.927 299.362 367.454C448.474 369.663 455.534 194.309 377.869 133.351" stroke="#064E42" stroke-width="28" stroke-linecap="round" stroke-linejoin="round"/>
<path d="M364.651 282.885C387.559 269.352 420.826 265.066 404.075 280.284" stroke="#064E42" stroke-width="28" stroke-linecap="round" stroke-linejoin="round"/>
<path d="M404.084 280.283C428.22 299.318 384.58 301.915 364.877 291.299" stroke="#064E42" stroke-width="28" stroke-linecap="round" stroke-linejoin="round"/>
<path d="M399.917 191.138C393.713 210.235 381.635 211.872 363.06 198.559" stroke="#064E42" stroke-width="28" stroke-linecap="round" stroke-linejoin="round"/>
<path d="M340.695 201.965C339.754 221.476 318.862 230.549 300.905 221.476" stroke="#064E42" stroke-width="28" stroke-linecap="round" stroke-linejoin="round"/>
<path d="M568.788 310.322C571.326 296.014 586.983 257.764 566.018 249.378C550.73 243.263 554.727 281.023 549.398 275.694C544.358 270.654 550.013 257.904 541.088 250.764C537.934 248.24 531.314 246.634 527.236 247.994C500.75 256.822 561.23 302.763 568.788 310.322Z" stroke="#EB5757" stroke-width="28" stroke-linecap="round" stroke-linejoin="round"/>
<path d="M313.196 116.794C300.713 154.323 275.007 187.798 244.809 212.961C237.942 218.684 228.337 213.406 220.234 221.51" stroke="#064E42" stroke-width="28" stroke-linecap="round" stroke-linejoin="round"/>
<path d="M141.475 280.283C160.549 323.571 183.353 469.402 110.16 469.402" stroke="#064E42" stroke-width="28" stroke-linecap="round" stroke-linejoin="round"/>
</svg>
