<svg width="100" height="100" viewBox="0 0 100 100" fill="none" xmlns="http://www.w3.org/2000/svg">
<path fill-rule="evenodd" clip-rule="evenodd" d="M50 0C22.3875 0 0 22.3833 0 50C0 77.6125 22.3875 100 50 100C77.6167 100 100 77.6125 100 50C100 22.3833 77.6167 0 50 0Z" fill="white"/>
<path fill-rule="evenodd" clip-rule="evenodd" d="M84.1042 66.3083C84.1042 66.3083 82.1333 66.8583 80.6625 65.2833C78.9333 63.4333 76.2 59.7083 76.2 59.7083C78.6167 59.0292 80.7875 57.7917 82.5083 56.0583C85.275 53.3042 86.7833 49.4042 86.7667 45.2083C86.8083 40.8458 84.8917 36.925 81.8667 34.4667C78.8542 31.9792 74.9708 30.825 70.9292 30.8208H63.8083C57.1167 30.8375 51.7083 36.25 51.6917 42.9375L51.6917 72.8375H59.7667L59.7667 64.3542C59.7708 62.1583 61.6125 60.3208 63.8083 60.3167L67.025 60.3167L75.7125 70.9583L76.3208 71.7083C76.9792 72.3375 77.8417 72.75 78.8042 72.8333L78.9792 72.8375C78.9966 72.8388 79.0144 72.8406 79.0324 72.8424C79.0704 72.8462 79.1091 72.85 79.1458 72.85C79.1826 72.85 79.2213 72.8462 79.2592 72.8424C79.2772 72.8406 79.2951 72.8388 79.3125 72.8375H84.0917L84.1042 66.3083ZM36.4968 74.0859C39.8168 72.2325 46.4153 68.5488 46.45 58.6V32.1208H38.4625L38.4542 45.175C38.3042 50.0417 33.7458 51.6167 30.1167 51.6667C25.9708 51.6083 21.6 49.3083 21.6 42.9875L21.6 32.1208H13.7208L13.7208 42.9875C13.7208 47.9208 15.425 52.1333 18.6542 55.175C21.575 57.925 25.5792 59.4708 29.9542 59.5458H30.2792C33.2167 59.4917 37.5333 57.575 38.3708 55.8833V59.4792C38.3708 64.2458 32.3083 67.3542 30.675 68.1708L30.7917 68.3125C30.7775 68.3196 30.7637 68.3267 30.7503 68.3336C30.7244 68.3471 30.6997 68.3598 30.675 68.3708L35.75 74.5083C35.9731 74.3783 36.2239 74.2383 36.4968 74.0859ZM70.926 38.9004C73.4468 38.8962 75.4635 39.6379 76.7135 40.6837C77.9468 41.7546 78.651 43.0087 78.6927 45.2046C78.6802 47.5671 77.926 49.2046 76.801 50.3462C75.6552 51.4754 74.0218 52.2296 71.6593 52.2379L63.8052 52.2379C62.5892 52.2415 61.4163 52.6686 60.31 53.0715C60.1274 53.138 59.9466 53.2039 59.7677 53.2671V42.9379C59.7718 40.7462 61.6093 38.9046 63.8052 38.9004L70.926 38.9004ZM50 0C22.3875 0 0 22.3833 0 50C0 77.6125 22.3875 100 50 100C77.6167 100 100 77.6125 100 50C100 22.3833 77.6167 0 50 0Z" fill="#00B8F1"/>
</svg>
