<svg width="700" height="700" viewBox="0 0 700 700" fill="none" xmlns="http://www.w3.org/2000/svg">
<path d="M478.007 373.352C487.709 292.796 386.801 178.799 289.859 240.395C282.938 244.791 229.257 288.568 235.653 298.322C235.825 298.585 270.042 293.427 274.573 294.084C292.764 296.723 300.312 329.409 309.314 329.409C329.268 329.409 343.325 309.499 364.912 325.171C375.702 333 378.031 359.612 387.152 363.319C410.623 372.862 444.71 343.871 451.02 395.174" stroke="#481581" stroke-width="28" stroke-linecap="round" stroke-linejoin="round"/>
<path d="M181.888 396.564C217.607 314.935 314.857 387.734 255.157 446.551C220.143 481.061 162.886 454.426 173.433 407.677" stroke="#481581" stroke-width="28" stroke-linecap="round" stroke-linejoin="round"/>
<path d="M124.425 648.468C123.656 635.637 98.5731 579.721 112.926 565.273C127.706 550.395 157.026 505.056 176.461 498.537C206.183 488.56 313.672 528.679 322.859 513.828C334.159 495.558 358.46 385.648 370.925 339.646" stroke="#481581" stroke-width="28" stroke-linecap="round" stroke-linejoin="round"/>
<path d="M241.122 519.312C229.497 561.964 227.586 605.603 220.132 648.468" stroke="#481581" stroke-width="28" stroke-linecap="round" stroke-linejoin="round"/>
<path d="M169.203 507.299C170.78 546.417 170.538 623.851 172.112 645.463" stroke="#481581" stroke-width="28" stroke-linecap="round" stroke-linejoin="round"/>
<path opacity="0.503384" d="M388.05 50.75C368.496 92.5081 312.678 149.902 298.095 176.902" stroke="#AB0058" stroke-width="21" stroke-linecap="round" stroke-linejoin="round"/>
<path opacity="0.503384" d="M466.013 53.7529C436.965 85.9599 417.515 124.978 391.05 158.879" stroke="#AB0058" stroke-width="21" stroke-linecap="round" stroke-linejoin="round"/>
<path opacity="0.503384" d="M504.994 92.7998C486.775 119.662 471.802 149.284 451.021 173.897" stroke="#AB0058" stroke-width="21" stroke-linecap="round" stroke-linejoin="round"/>
<path opacity="0.503384" d="M564.965 125.841C541.502 157.491 522.552 192.648 495.999 221.957" stroke="#AB0058" stroke-width="21" stroke-linecap="round" stroke-linejoin="round"/>
<path opacity="0.503384" d="M591.952 185.914C574.628 218.707 550.333 246.396 537.978 282.029" stroke="#AB0058" stroke-width="21" stroke-linecap="round" stroke-linejoin="round"/>
<path d="M349.071 440.7C361.914 440.161 368.336 438.274 368.336 435.044C368.336 431.812 366.592 424.859 363.104 414.186" stroke="#481581" stroke-width="28" stroke-linecap="round" stroke-linejoin="round"/>
</svg>
