<svg width="600" height="600" viewBox="0 0 600 600" fill="none" xmlns="http://www.w3.org/2000/svg">
<path d="M555.16 178.88C549.88 173.46 543.04 169.4 536.68 165.38C531.6 162.18 526.42 159.12 521.14 156.24C515.36 146.72 504.82 138.88 496.38 133.36C483.42 124.88 468.94 118.74 454.6 113.02C423.8 100.74 391.56 92.2402 358.88 86.7402C325.92 81.1802 292.5 78.5602 259.1 78.1202C225.74 77.7002 191.9 78.8602 159.36 86.8202C151.22 88.8002 143.2 91.2202 135.36 94.1602C129.14 96.4802 122.96 99.1602 117.98 103.66C115.16 106.22 113.28 109.14 112.24 112.2C107 114.06 101.84 116.18 96.86 118.68C90.4 121.9 83.28 125.76 78.22 131.04C67.2 142.52 76.58 156.4 87.66 163.32C92.7 166.46 98.12 169.1 103.74 171.34C97.92 174.86 93.06 179.42 91.12 185.66C86.5 200.42 104.12 210.6 115 215.94C120.14 218.46 125.42 220.72 130.78 222.8C129.44 223.66 128.18 224.64 127.04 225.78C116.44 236.3 125.64 248.72 135.9 254.62C134.38 255.4 132.86 256.22 131.36 257.08C129.56 258.12 128.76 260.3 129.24 262.28C133.16 278.12 152.38 281.34 165.76 284.76C173.76 286.8 181.78 288.74 189.8 290.66C182.94 294.58 178.18 300 181.06 307.46C181.2 307.8 181.34 308.14 181.52 308.48C181.02 308.62 180.52 308.74 180.02 308.88C173.44 310.68 164.16 312.7 161.72 320.14C159.46 327.04 164.3 332.9 169.88 336.3C177.3 340.84 186.7 342.88 194.9 345.54C197.98 346.54 201.08 347.52 204.18 348.5C201.64 349.08 199.1 349.7 196.58 350.42C191.14 351.94 184.88 354 183.16 360.1C181.52 365.92 185.44 371.08 189.86 374.36C195.36 378.42 202.5 380.46 208.82 382.86C216.06 385.62 223.34 388.24 230.68 390.7C236.32 392.6 241.98 394.4 247.66 396.1C240.12 397.34 232.62 398.94 225.22 400.88C222.1 401.7 221.28 405 222.46 407.64C225.78 415.06 233.52 418.32 240.82 420.66C251.38 424.06 262.02 427.28 272.6 430.58C287.24 435.14 301.9 439.72 316.54 444.28C305.14 445.76 293.74 447.22 282.34 448.7C270.04 450.28 250.18 449.38 244.96 463.52C244.3 465.28 245.36 467.9 247.08 468.72C256.9 473.48 266.94 477.66 277.2 481.24C260.72 481.66 244.4 483.84 228.84 489.9C225.66 491.14 223.7 496.56 227.74 498.32C232.22 500.24 236.76 501.98 241.34 503.56C239.56 505.62 239.6 509.14 242.34 510.6C258.74 519.28 276.8 523.86 295.36 523.9C301.28 523.9 301.3 514.7 295.36 514.7C284.6 514.68 274.02 513.02 263.88 509.78C280.802 513.327 298.143 514.444 315.38 513.1C320.58 512.7 321.6 505.82 316.6 504.06C297.62 497.38 277.26 495.7 257.52 498.98C252.88 497.78 248.28 496.38 243.74 494.8C267.48 488.68 292.5 490.2 316.86 491.82C321.98 492.16 323.2 483.76 318.08 482.78C296.72 478.66 275.96 472.04 256.22 462.94C259.42 460.68 264.62 460.24 267.96 459.78C275.72 458.74 283.5 457.78 291.26 456.78C306.8 454.78 322.32 452.76 337.86 450.76C342.78 450.12 344.4 443.38 339.08 441.72L280.2 423.36C270.68 420.38 261.14 417.42 251.62 414.44C246.44 412.82 239.4 411.54 234.62 408.06C246.58 405.3 258.7 403.48 270.88 402.6C272.6 403.04 274.34 403.48 276.06 403.9C310.16 412.32 345.02 417.58 380.06 419.78C385.66 420.14 385.72 412.54 381.28 410.74C346.62 396.68 309.02 390.86 271.86 393.32C253.26 388.5 234.88 382.78 216.84 376.12C210.56 373.8 203.84 371.74 197.9 368.62C196.04 367.64 193.54 366.3 192.5 364.38C190.7 361.02 195.76 360.22 198.12 359.54C206.5 357.12 215.1 355.5 223.74 354.44C242.6 359.9 261.64 364.8 280.82 369.1C302.72 374.02 324.8 378.16 346.98 381.52C368.58 384.8 390.72 388.6 412.48 384.68C415.34 384.16 416.74 380.26 415.24 377.92C409.38 368.9 399.96 364.32 390.06 361.2C408.12 362.8 426.36 363.5 443.34 356C445.18 355.18 445.94 352.6 445.46 350.8C441.32 335.6 424.36 330.66 411.12 326.32C408.92 325.6 406.7 324.88 404.48 324.2C407.86 323.74 411.2 322.98 414.48 321.84C418.4 320.48 418.84 315.76 415.58 313.42C414.1 312.36 412.6 311.36 411.1 310.38C422.28 310.92 433.48 310.86 444.6 309.56C450.72 308.84 457.66 308.14 462.4 303.72C466.98 299.46 467.26 293.02 463.4 288.16C460.06 283.96 454.96 280.72 450 277.92C451.04 277.92 452.08 277.92 453.12 277.88C459.18 277.72 466.66 277.92 471.26 273.2C479.04 265.22 471.12 257.54 462.56 252.02C463.22 252.02 463.88 251.98 464.54 251.96C480.7 251.4 497.62 249.56 512.54 242.9C518.52 240.24 523.84 235.5 523.9 228.46C523.94 223.48 521.44 218.9 518.18 215.12C520.98 214.8 523.78 214.46 526.58 214.06C534.36 212.98 542.78 212.24 550.18 209.46C556.1 207.24 561.24 203.1 562.32 196.56C563.44 189.8 559.64 183.58 555.08 178.92L555.16 178.88ZM504.28 181C503.02 180.28 501.76 179.58 500.56 178.9C499.7 178.42 498.84 177.96 497.98 177.5C499.1 177.22 500.22 176.92 501.32 176.6C505.82 175.34 511.68 174.06 515.78 171.02C515.38 172.86 514.38 174.62 512.6 176.24C510.22 178.4 507.34 179.86 504.28 181ZM507.58 194.02C510.1 195.72 514.24 197.92 515.4 200.92C516.82 204.58 512.56 205.24 509.78 205.84C509.26 205.96 508.74 206.06 508.24 206.16C502.48 201.74 496.36 197.8 489.98 194.26C494.34 193.38 498.68 192.34 502.94 191.08C502.96 191.08 502.98 191.08 503 191.06C504.54 192.02 506.08 193.02 507.58 194.02ZM366.46 201.46C333.92 198.26 301.42 194.78 268.92 191.2C260.18 190.24 251.44 189.24 242.7 188.22C212.98 183.1 182.8 177.32 154.38 167.14C152.3 166.4 150.24 165.62 148.2 164.82C149.94 164.4 151.68 163.98 153.42 163.6C164.16 167.74 175.44 170.52 186.62 173.04C203.94 176.94 221.46 179.76 239.04 182.12C274.26 186.82 309.74 190.3 345.12 193.52C380.68 196.76 416.66 199.52 452.4 198.28C459.6 198.04 466.84 197.56 474.04 196.76C480.66 199.9 487.14 203.38 493.36 207.3C493.7 207.5 494.02 207.72 494.36 207.92C476.18 208.88 457.94 208.68 439.78 207.96C415.3 206.46 390.84 203.9 366.48 201.5L366.46 201.46ZM479.2 152.18C477.22 154.14 472.94 154.72 470.42 155.38C466.58 156.4 462.68 157.26 458.78 157.98C457.04 158.3 455.28 158.6 453.52 158.88C450.2 157.8 446.86 156.78 443.52 155.8C444.76 153.92 445.7 151.88 446.2 149.6C447.44 143.86 445.42 138.3 442.08 133.72C454.84 137.56 467.44 141.9 479.8 146.88C480.7 148.78 480.76 150.64 479.2 152.18ZM149.6 141.32C144.4 139.2 135.72 136.12 129.12 131.6C130.58 128.42 134.3 125.92 137.46 124.12C137.48 124.4 137.5 124.66 137.54 124.94C138.44 131.06 143.7 135.16 148.98 137.62C153.44 139.7 158.06 141.48 162.78 143.04C161.12 143.5 159.46 143.96 157.8 144.46C155.04 143.46 152.3 142.42 149.58 141.3L149.6 141.32ZM385.3 152.98C385.7 155.8 383.58 157.68 380.7 158.98C374.2 157.66 367.66 156.44 361.12 155.32C360.8 151.98 359.06 149.24 356.5 146.98C366.02 148.3 375.5 149.82 384.96 151.58C385.12 152.02 385.24 152.5 385.3 153V152.98ZM275.06 144.02C288.76 141.48 303.04 141.22 316.84 143.24C323.76 144.26 330.6 145.86 337.28 147.98C339.56 148.7 347.08 150.6 350.4 153.58C342.94 152.42 335.44 151.4 327.94 150.5C307.105 148.001 286.16 146.519 265.18 146.06C268.52 145.24 271.9 144.62 275.08 144.02H275.06ZM254 158.78C268.4 160.48 282.8 162.06 297.22 163.48C297.76 164.1 298.58 164.56 299.7 164.72C309.54 166.14 319.4 166.7 329.24 166.34C333.84 166.72 338.46 167.06 343.08 167.4C336.56 168.3 330 168.86 323.42 169.14C319.74 168.94 316.06 168.7 312.38 168.4C296.92 167.18 281.4 165.44 266.24 162.1C262.22 161.22 258.24 160.18 254.28 159.04C254.18 158.96 254.1 158.86 254 158.78ZM268.9 131.86C279.92 130.82 291 130.52 302.06 130.88C317.284 131.376 332.432 133.244 347.32 136.46C321.299 133.319 295.11 131.783 268.9 131.86ZM250.88 141.3C248.54 142.44 246.42 143.92 244.86 145.92C239.04 145.98 233.22 146.12 227.4 146.32C226.56 146.22 225.74 146.1 224.9 146C223.92 145.12 222.78 143.96 222.36 142.86C231.86 142.12 241.36 141.6 250.88 141.3ZM213.02 143.68L213.2 144.4C212.2 144.26 211.18 144.1 210.18 143.96C211.12 143.86 212.08 143.78 213.02 143.68ZM392.32 161.2C393.86 159.08 394.74 156.52 394.6 153.4C397.76 154.04 400.92 154.68 404.08 155.38C410.58 156.78 417.08 158.28 423.58 159.88C422.44 160.44 421.3 160.96 420.14 161.44C410.88 161.64 401.6 161.52 392.32 161.2ZM433.98 153.12C433.72 153.06 433.46 152.98 433.2 152.9C419.1 149.16 404.88 145.94 390.54 143.18C383.26 134.56 367.92 132 358.16 129.54C325.74 121.38 291.76 119.44 258.62 123.82C250.36 124.92 242.14 126.36 234 128.22C228.7 129.44 220.56 130.22 216.02 134.18C204.52 135.2 193.02 136.6 181.66 138.74C171.8 136.54 161.96 133.7 153.08 129.42C150.96 128.4 148 126.98 147 124.68C145.74 121.76 148.42 119.56 150.68 118.14C156.76 114.34 164.46 112.36 171.36 110.62C180.38 108.34 189.62 106.82 198.88 105.68C212.5 104.58 226.14 104 239.8 103.9C299.42 103.5 359.38 111.94 417.14 126.78C419.56 127.88 421.92 129.1 424.22 130.46C429.5 133.58 436.42 138.28 437.26 144.96C437.66 148.2 436.18 150.9 433.96 153.12H433.98ZM421.32 118.34C414.24 115.18 406.68 112.92 399.72 110.98C391.72 108.76 383.66 106.74 375.54 104.94C387.02 107.22 398.44 109.9 409.72 113C424 116.92 438.5 121.12 452.06 127.16C441.9 123.92 431.64 121 421.3 118.34H421.32ZM173.96 149.74C176.5 149.16 179.02 148.62 181.58 148.12C183.1 148.46 184.62 148.76 186.12 149.08C182.68 149.44 179.26 149.86 175.84 150.3C175.22 150.12 174.58 149.94 173.96 149.74ZM222.5 155.72C227.24 158.86 232.86 161.04 237.96 163.12C238.64 163.4 239.32 163.66 240.02 163.92C227.44 161.88 214.9 159.54 202.46 156.84C209.16 156.36 215.84 156 222.5 155.72ZM175.6 98.9202C173.68 99.1602 171.78 99.4202 169.86 99.6802C174.94 98.4002 180.08 97.3202 185.24 96.4002C182 97.1802 178.78 98.0202 175.58 98.9202H175.6ZM126.26 118.42C127.12 117.84 128 117.28 128.88 116.72C130.68 116.26 132.48 115.82 134.28 115.4C129.78 117.9 125.34 120.92 122.42 125.18C121.8 124.24 121.28 123.26 120.92 122.22C122.7 120.86 124.54 119.6 126.28 118.44L126.26 118.42ZM175.24 159.68C186.8 162.92 198.54 165.52 210.32 167.8C219.02 169.5 227.74 171.06 236.48 172.52C235 172.32 233.52 172.12 232.06 171.9C216.18 169.6 200.36 166.82 184.74 163.14C180.66 162.18 176.56 161.18 172.5 160.06C173.42 159.92 174.34 159.8 175.24 159.66V159.68ZM424.5 185.2C430.62 185.02 436.74 184.82 442.86 184.52C447.1 185.9 451.32 187.36 455.48 188.92C445.48 189.36 435.46 189.32 425.46 189.12C398.8 188.6 372.2 186.72 345.66 184.32C371.92 185.66 398.24 185.96 424.5 185.18V185.2ZM397.98 176.48C401.42 176 404.86 175.42 408.26 174.68C409.54 175 410.84 175.34 412.12 175.66C413.16 175.92 414.18 176.2 415.22 176.48C409.46 176.52 403.7 176.52 397.98 176.48ZM429.66 170.92L428.16 170.5C436.46 170.12 444.72 169.42 452.9 168.22C457.9 169.86 462.86 171.64 467.76 173.56C460.24 174.46 452.66 175.1 445.04 175.56C439.9 173.92 434.76 172.38 429.66 170.92ZM478.88 168.26C476.2 167.12 473.5 166.04 470.8 164.98C479.62 162.88 488.82 159.18 489.52 150.92C496.958 154.154 504.276 157.656 511.46 161.42V161.84C511.1 164.96 504.64 166.02 502.22 166.76C496.56 168.5 490.8 169.86 485 170.96C482.98 170.04 480.94 169.12 478.9 168.26H478.88ZM112.26 131.92C112.8 130.78 113.46 129.7 114.22 128.68C115.52 130.96 117.24 133.1 119.32 135C119.7 142.62 126.48 148.94 133.5 153.58C132.26 154.16 131.02 154.74 129.8 155.34C129.42 155.52 129.06 155.72 128.7 155.9C124.46 153.66 120.3 151.16 116.84 147.88C112.36 143.62 109.42 137.98 112.26 131.92ZM134.08 168.76C134.48 168.94 134.86 169.12 135.26 169.28C138.54 170.74 141.84 172.1 145.18 173.42C140.22 172.38 135.28 171.26 130.38 169.98C131.62 169.56 132.84 169.14 134.08 168.76ZM475.92 187.22C472.54 185.7 469.1 184.24 465.64 182.88C469.18 182.52 472.7 182.12 476.24 181.64C478.74 181.3 481.24 180.92 483.74 180.5C485.46 181.32 487.16 182.16 488.86 183.04C489.78 183.5 490.68 184 491.58 184.48C486.4 185.64 481.18 186.56 475.92 187.24V187.22ZM106.36 162.22C99.86 159.56 92.78 156.58 87.56 151.74C82.38 146.92 80.36 141.2 86.26 136.12C91.54 131.58 98.08 128.16 104.36 125.24L106.22 124.4C102.36 129.86 100.44 136.22 102.92 143.44C105.7 151.54 112.5 157.32 120.08 161.78C118.952 162.807 117.902 163.917 116.94 165.1L115.56 165.64C112.44 164.58 109.36 163.46 106.32 162.2L106.36 162.22ZM130.38 212.58C123.54 209.94 116.8 206.9 110.64 202.88C105.82 199.76 97.36 194.34 100.24 187.52C102.34 182.54 108.08 179.48 112.78 177.2C112.92 179.62 113.62 182.18 115 184.84C121.56 197.44 138.22 203.78 150.6 208.68C154.16 210.08 157.76 211.36 161.38 212.56C155.62 213.88 149.9 215.4 144.26 217.18C144.1 217.24 143.92 217.28 143.76 217.34C139.26 215.86 134.8 214.28 130.38 212.56V212.58ZM133.98 241.78C129.06 236.4 132.94 231.76 138.4 229.1C139.88 228.38 141.44 227.72 143.02 227.14C159.76 232.64 177.16 236.54 194.42 240.04C178.12 241.48 161.8 244.12 146.74 249.84C142.1 247.78 137.3 245.42 133.98 241.8V241.78ZM185.58 280.14C175.56 277.7 165.44 275.38 155.52 272.52C149.72 270.84 142.72 268.44 139.52 263.08C141.78 261.9 144.06 260.82 146.4 259.84C168.44 270.08 192.38 276.46 216.16 281.76C214.86 282.04 213.58 282.32 212.28 282.64C210.3 283.14 207.66 283.78 204.74 284.64C198.34 283.18 191.96 281.68 185.58 280.14ZM189.84 304.48C189.08 302.4 190.72 301.18 192.28 300.12C196.12 297.54 200.66 295.66 205.26 294.18C212.38 295.8 219.52 297.38 226.68 298.9C230.82 299.78 234.96 300.64 239.1 301.48C238.78 301.48 238.46 301.48 238.14 301.5C222.46 302.04 206.58 303.1 191.14 306.18C190.56 305.64 190.06 305.06 189.86 304.46L189.84 304.48ZM200.72 337.68C192.7 335.12 183.74 333.1 176.24 329.22C174.48 328.32 170.02 326.02 170.34 323.46C170.7 320.58 176.18 319.54 178.32 318.88C181.74 317.84 185.2 316.92 188.66 316.14C191.58 318.24 194.82 319.98 197.58 321.48C204.9 325.46 212.74 328.48 220.68 330.96C237.26 336.16 254.44 339.78 271.42 343.34C261.94 343.12 252.44 343.2 242.98 343.62C236.9 343.88 230.8 344.32 224.72 345.02C216.68 342.68 208.66 340.24 200.7 337.68H200.72ZM356.48 373.58C338.881 371.04 321.354 368.019 303.92 364.52C286.48 361 269.14 357.02 251.92 352.54C276.2 351.96 300.62 353.56 324.62 356.86C340.44 359.02 356.16 362 371.68 365.76C381.44 368.12 393.8 370.18 402.12 376.78C386.92 378.08 371.48 375.76 356.48 373.6V373.58ZM421.08 339.42C426.4 341.58 432.08 344.5 435.08 349.44C422.1 354 407.86 353.38 394.3 352.28C377.42 350.9 360.56 348.98 343.76 346.66C310.581 342.082 277.653 335.841 245.1 327.96C230.52 324.44 215.64 320.8 202.36 313.6C211.9 312.2 221.56 311.46 231.2 311C253.28 309.94 275.44 310.36 297.46 312.28C314.4 315.08 331.38 317.64 348.4 319.9L355.26 320.8C368.54 323.58 381.72 326.88 394.74 330.72C403.56 333.34 412.52 335.94 421.06 339.4L421.08 339.42ZM354.46 311.26C335.92 307.52 317.18 304.82 298.34 303.16C274.051 299.098 249.858 294.484 225.78 289.32C231.7 288.4 237.7 287.86 243.7 287.56C275.06 293.84 306.62 299.02 338.34 303.12C355.04 305.28 371.8 307.12 388.58 308.66C393.06 310.64 397.44 312.84 401.66 315.3C387.16 317.08 371.54 313.74 357.5 311.92C356.5 311.72 355.5 311.5 354.48 311.28L354.46 311.26ZM457.04 294.96C457.32 297.36 453.82 298.44 452.04 299C445.34 301.04 437.7 301.08 430.74 301.32C417.48 301.76 404.24 300.86 391.04 299.66C367.88 289.74 341.96 285.32 317.48 282.02C299.26 279.56 280.9 278.2 262.5 278.02C256.48 277.96 250.42 278.02 244.38 278.3C242.26 277.88 240.12 277.44 238 277C211.44 271.5 184.64 265.42 159.42 255.24C180.16 249.26 202.86 248.4 223.88 247.48C226.34 247.38 228.8 247.28 231.26 247.2C260.8 252.86 290.42 258.18 320.1 263.14C355.3 269.02 390.74 275.4 426.42 277.36C427.34 277.42 428.26 277.44 429.2 277.48C436.14 280.56 442.88 284.1 449.26 288.3C451.18 289.56 456.78 292.36 457.08 294.94L457.04 294.96ZM287.18 248.2C297.58 248.88 307.96 249.86 318.32 251.1C343.14 254.1 368.16 258.48 392.4 265.06C366.92 261.98 341.56 257.5 316.28 253.24C306.58 251.6 296.88 249.92 287.18 248.2ZM463.76 264.24C466.38 267.16 462.88 267.88 460.3 268.28C452.82 269.42 444.66 268.8 437.12 268.62C435.16 268.58 433.2 268.5 431.22 268.42C428.96 267.44 426.68 266.5 424.38 265.62C392.94 253.46 358.64 247.22 325.32 242.8C294.339 238.693 263.078 237.088 231.84 238C228.26 237.32 224.68 236.64 221.12 235.94C200.7 231.96 180.16 227.9 160.08 222.32C166.92 220.62 173.84 219.24 180.8 218.14C186.52 219.58 192.28 220.88 198.04 222.12C215.64 225.94 233.38 229.18 251.16 232.04C286.3 237.7 321.66 242.04 357.04 245.94C385.88 249.1 415 251.88 444.06 252.16C448 254.24 451.9 256.42 455.7 258.74C458.34 260.34 461.62 261.92 463.72 264.24H463.76ZM208.5 215.1C229.7 213.72 251.06 214.3 272.24 215.42C300.84 216.96 329.52 219.22 357.74 224.24C379.92 228.18 401.98 233.8 422.88 242.28C404.2 241.4 385.52 239.7 366.98 237.78C334.78 234.44 302.58 230.52 270.56 225.76C249.86 222.7 229.06 219.38 208.52 215.08L208.5 215.1ZM510.38 220.04C512.38 222.14 514.96 225.26 514.78 228.4C514.58 231.74 511.22 233.44 508.52 234.64C494.66 240.8 478.74 242.24 463.78 242.72C457.96 242.9 452.16 242.96 446.34 242.92C420.56 229.7 392.48 221.38 364.06 216.06C332.94 210.24 301.28 207.7 269.7 206.08C240.28 204.58 210.56 204.42 181.38 208.76C179.96 208.4 178.56 208.02 177.14 207.64C162.8 203.76 148.66 198.86 135.7 191.54C130.58 188.64 124.56 184.82 122.42 179.02C122.2 178.44 122.08 177.86 121.98 177.3C125.44 178.26 128.88 179.12 132.3 179.94C166.48 188.12 201.78 192.44 236.62 196.66C237.76 196.8 238.9 196.94 240.06 197.06C255.72 199.76 271.46 202.1 287.2 204.18C322.58 208.86 358.16 212.02 393.76 214.46C411.02 215.64 428.34 216.76 445.66 217.34C447.78 217.46 449.88 217.6 452 217.72C467.76 218.56 483.58 218.66 499.26 216.76C499.74 216.72 500.24 216.7 500.72 216.68C502.58 216.56 504.44 216.4 506.3 216.26C507.74 217.46 509.1 218.72 510.38 220.06V220.04ZM552.5 197.2C549.32 202.2 539.92 202.62 534.76 203.5C531.44 204.06 528.12 204.56 524.8 205.02C525.86 200.36 523.44 195.4 519.92 191.88C517.98 189.94 515.78 188.2 513.46 186.6C520.16 182.72 525.48 176.94 525.34 169.02C532.04 172.92 538.58 177.1 544.62 181.76C548.68 184.88 556.1 191.52 552.48 197.2H552.5Z" fill="#0C551F"/>
</svg>
