<svg width="700" height="700" viewBox="0 0 700 700" fill="none" xmlns="http://www.w3.org/2000/svg">
<g id="thank-you-content">
    <animateTransform attributeName="transform" type="translate" values="0 0; 10 5; 0 0" dur="10s" repeatCount="indefinite" />
<path fill-rule="evenodd" clip-rule="evenodd" d="M335.545 200.374C333.935 203.874 335.545 203.664 335.895 203.034C336.768 201.555 337.99 200.313 339.454 199.416C340.919 198.519 342.581 197.995 344.295 197.889C345.686 197.851 347.077 197.91 348.46 198.064C350.315 198.309 350.735 198.519 350.91 198.064C351.085 197.609 339.5 191.729 335.545 200.374ZM400.26 181.299C400.305 181.16 400.293 181.009 400.228 180.878C400.162 180.747 400.048 180.647 399.91 180.599C386.925 174.299 378.91 189.594 380.695 190.399C381.325 190.644 381.22 190.119 383.11 187.914C391.37 178.499 399.875 182.559 400.26 181.299ZM392 168.594C392.56 169.014 394.17 168.174 390.565 166.144C385.7 163.414 375.69 164.534 375.725 165.794C375.76 167.054 389.9 167.509 392 168.594ZM365.084 222.984C363.44 217.629 360.5 190.784 359.03 190.959C357.56 191.134 360.815 225.609 364.245 225.539C366.398 225.337 368.509 224.818 370.51 223.999C371.42 223.649 376.845 221.444 376.355 220.499C375.865 219.554 372.715 222.459 365.085 222.984ZM403.445 215.669C403.647 216.897 403.776 218.136 403.83 219.379C404.46 231.384 395.08 232.469 394.66 232.819C394.24 233.169 393.645 234.359 397.985 232.819C412.125 228.094 401.765 205.694 403.445 215.669ZM303.45 245.804C303.519 245.861 303.606 245.893 303.695 245.893C303.784 245.893 303.871 245.861 303.94 245.804C303.997 245.736 304.028 245.649 304.028 245.559C304.028 245.47 303.997 245.383 303.94 245.314C238.28 190.049 192.92 152.214 107.24 82.2495C107.175 82.1853 107.087 82.1494 106.995 82.1494C106.903 82.1494 106.815 82.1853 106.75 82.2495C106.686 82.3149 106.65 82.4028 106.65 82.4945C106.65 82.5861 106.686 82.674 106.75 82.7395C184.8 148.434 226.835 183.259 303.45 245.804ZM186.375 298.759L205.275 302.889C205.368 302.889 205.457 302.853 205.522 302.787C205.588 302.721 205.625 302.632 205.625 302.539C205.625 302.447 205.588 302.358 205.522 302.292C205.457 302.226 205.368 302.189 205.275 302.189L186.48 297.674C-30.8 245.594 -44.485 248.079 186.375 298.759ZM246.26 390.354C246.314 390.291 246.344 390.21 246.344 390.127C246.344 390.044 246.314 389.963 246.26 389.9C246.222 389.817 246.153 389.752 246.068 389.72C245.983 389.687 245.889 389.689 245.805 389.724C188.825 411.459 160.02 421.785 28.98 473.725C28.936 473.74 28.8955 473.764 28.861 473.796C28.8265 473.827 28.7987 473.865 28.7791 473.908C28.7595 473.95 28.7486 473.996 28.7471 474.043C28.7455 474.089 28.7533 474.136 28.77 474.179C28.8088 474.271 28.8815 474.344 28.9728 474.383C29.0641 474.422 29.167 474.424 29.26 474.389C169.96 421.259 230.685 396.479 246.26 390.354Z" fill="#0A705F"/>
<path fill-rule="evenodd" clip-rule="evenodd" d="M655.305 348.845C642.131 327.496 623.339 310.181 600.985 298.795C599.235 288.75 580.93 196.875 499.975 175.7C499.975 175.7 504.315 72.4847 433.895 69.0197C362.005 65.5197 334.25 105.525 334.285 105.42C334.32 105.315 291.795 129.5 327.915 208.46C335.405 256.655 367.01 285.075 417.375 272.23L422.73 283.01C417.76 283.535 378.21 288.47 333.795 319.795C231.665 391.755 192.5 546 226.695 605.5C230.148 612.111 235.121 617.809 241.206 622.123C247.291 626.437 254.313 629.245 261.695 630.315C340.725 641.655 373.94 543.305 382.445 463.855C390.985 478.205 402.395 496.09 415.975 514.71C414.785 534.275 408.975 589.085 414.4 626.71C414.404 626.756 414.418 626.801 414.44 626.841C414.461 626.882 414.491 626.918 414.527 626.948C414.563 626.977 414.604 626.999 414.648 627.012C414.693 627.025 414.739 627.03 414.785 627.025C414.872 627.003 414.949 626.953 414.006 626.884C415.062 626.815 415.095 626.729 415.1 626.64C411.845 595.14 416.29 532.56 416.71 515.725C418.915 518.77 421.225 521.815 423.71 524.86C423.395 529.9 421.365 544.915 420.21 563.045C417.06 614.04 423.71 631.68 422.905 626.605C418.215 589.225 423.85 540.575 424.41 525.84C466.725 581 532 644.56 598.5 623.805C709.765 588.98 687.855 404.075 655.305 348.845ZM497.245 258.685C460.11 278.915 458.99 279.685 460.425 295.295C459.34 295.96 458.22 296.66 457.135 297.395H456.855C455.245 281.365 455 277.2 468.09 269.395L493.5 253.645L497.245 258.685ZM457.1 299.775H457.31L461.055 301.35C465.815 344.96 448.7 361.55 434.98 451.08C432.74 449.33 430.22 447.195 428.365 445.585C434.91 401.59 457.345 344.26 458.01 318.535C458.109 312.268 457.805 306.002 457.1 299.775ZM459.69 298.095L460.635 297.5V298.935L459.585 298.515L459.69 298.095ZM419.23 273C418.53 271.74 418.46 270.41 417.55 270.655C359.17 283.85 326.9 240.66 328.44 190.155C330.79 186.871 333.412 183.792 336.28 180.95C337.173 180.095 338.159 179.344 339.22 178.71C339.353 178.655 339.462 178.554 339.526 178.425C339.591 178.297 339.606 178.149 339.57 178.01C339.115 176.575 331.45 179.235 328.615 186.375C329.805 165.375 336 135.94 359.415 119.175C359.415 119.175 438.76 184.38 443.415 184.8C448.07 185.22 447.23 164.5 457.8 161C468.37 157.5 478.345 161.56 478.52 175.63C478.319 181.113 476.688 186.448 473.791 191.108C470.893 195.767 466.829 199.589 462 202.195C471.286 219.724 481.667 236.651 493.08 252.875C462.56 270.935 457.8 272.16 455.42 280.21C453.101 278.1 450.554 276.257 447.825 274.715C434.735 267.645 420.42 271.88 419.23 273ZM419.615 273.77C420.14 273.77 435.715 268.24 454.79 281.015C454.494 282.314 454.318 283.638 454.265 284.97C442.575 277.06 429.765 277.165 422.765 281.47L419.615 273.77ZM335.125 321.65C381.92 288.085 423.5 284.235 423.5 284.235C424.795 284.235 423.5 282.765 423.5 282.415C433.02 278.915 445.305 281.995 454.51 286.37C454.553 289.762 454.775 293.15 455.175 296.52C454.545 296.24 439.915 290.15 439.53 290.955C439.145 291.76 454.825 298.55 455.175 298.69C437.675 309.995 435.645 313.425 455.595 300.79C456.208 306.602 456.454 312.447 456.33 318.29C455.665 343.175 434.07 398.09 427.805 444.815C420.413 438.187 413.479 431.065 407.05 423.5C396.865 411.915 394.38 410.025 390.915 392.595C387.87 377.16 350.07 340.095 346.255 350.595C340.06 345.065 336.245 349.02 337.225 353.78C333.41 352.1 331.24 356.265 331.625 360.78C329.595 359.275 326.305 360.535 327.005 367.465C327.95 376.565 334.46 392.595 336.35 398.125C345.31 424.095 355.285 428.26 351.54 438.9C345.66 455.56 315 480.41 301 491.295C316.995 431.2 328.125 407.295 327.04 406.91C325.955 406.525 314.93 437.78 313.04 443.975C303.517 436.898 292.393 432.284 280.657 430.544C268.921 428.804 256.937 429.991 245.77 434C266 390.565 294.84 350.56 335.125 321.65ZM245.245 435.225C256.497 431.706 268.389 430.728 280.065 432.362C291.74 433.997 302.907 438.202 312.76 444.675L311.605 448.175C287.35 432.6 261.45 431.48 243.215 439.635C243.88 438.27 244.545 436.73 245.245 435.225ZM262.115 627.235C255.212 626.222 248.649 623.58 242.971 619.526C237.292 615.472 232.661 610.124 229.46 603.925C204.96 561.295 222.985 486.325 242.725 440.895C260.435 433.895 285.74 434.49 311.395 449.015C307.65 461.755 304.99 469.385 300.09 492.03C286.44 502.74 273.175 511.84 258.72 525.77C253.18 530.76 248.236 536.374 243.985 542.5C243.928 542.569 243.897 542.655 243.897 542.745C243.897 542.834 243.928 542.921 243.985 542.99C244.05 543.054 244.138 543.09 244.23 543.09C244.322 543.09 244.41 543.054 244.475 542.99C248.791 536.979 253.782 531.483 259.35 526.61C282.765 504.63 363.965 452.69 353.115 429.94C346.115 415.45 342.3 410.9 337.75 397.845C334.321 389.203 331.399 380.368 329 371.385C326.795 361.41 329.805 360.255 331.87 362.985C335.37 381.99 358.33 415.485 365.225 432.285C370.142 442.46 375.574 452.377 381.5 462C372.47 539.875 339.22 638.68 262.115 627.235ZM597.765 621.53C557.41 634.095 517.265 614.81 481.845 584.43C418.355 529.9 371 439.565 367.5 431.375C361.655 416.955 333.06 371.875 333.97 359.03C334.81 346.99 350.07 374.92 357.77 387.03C357.923 387.308 358.181 387.514 358.486 387.603C358.791 387.692 359.119 387.655 359.398 387.502C359.676 387.349 359.882 387.092 359.971 386.786C360.059 386.481 360.023 386.153 359.87 385.875C354.756 376.124 348.819 366.827 342.125 358.085C336.805 351.995 338.065 342.475 352.94 361.585C365.225 377.37 365.12 382.865 367.395 381.605C367.529 381.532 367.647 381.433 367.742 381.314C367.837 381.195 367.908 381.058 367.95 380.912C367.993 380.766 368.006 380.612 367.988 380.461C367.971 380.309 367.924 380.163 367.85 380.03C362.54 370.096 355.976 360.886 348.32 352.625C346.43 342.58 385.595 376.6 388.885 392.91C389.805 398.978 391.621 404.876 394.275 410.41C398.72 418.74 419.37 440.23 429.905 448.91C475.93 487.41 511.245 486.605 557.83 507.85C574.035 515.27 587.02 524.02 592.62 535.85C592.648 535.91 592.687 535.963 592.735 536.008C592.783 536.053 592.84 536.087 592.902 536.11C592.964 536.133 593.029 536.143 593.095 536.14C593.161 536.138 593.225 536.122 593.285 536.095C593.345 536.067 593.398 536.028 593.443 535.98C593.488 535.931 593.523 535.875 593.545 535.813C593.568 535.751 593.578 535.686 593.576 535.62C593.573 535.554 593.558 535.489 593.53 535.43C587.895 523.285 574.77 514.43 558.32 506.66C552.755 504.07 546.77 501.655 540.61 499.345C542.15 488.215 544.39 476.175 546.63 465.185C569.855 459.063 594.305 459.344 617.383 466C640.461 472.655 661.306 485.436 677.705 502.985C672 557.305 649.355 605.5 597.765 621.53ZM677.915 502.74C640.5 462 584.815 452.55 546.7 464.87C547.12 462.805 547.645 460.425 548.065 458.5C592.585 447.545 646.065 458.185 678.265 495.88C678.306 495.908 678.355 495.924 678.405 495.924C678.455 495.924 678.504 495.908 678.545 495.88C678.37 498.225 678.16 500.5 677.915 502.74ZM548.205 457.835C557.935 413.7 565.705 397.67 564.69 397.285C564.632 397.233 564.558 397.204 564.48 397.204C564.403 397.204 564.328 397.233 564.27 397.285C551.95 431.97 544.215 457.52 539.945 499.24C494.445 482.23 472.36 480.2 435.575 451.255C450.275 364.805 467.53 343.91 462.77 301.805C478.205 308.245 482.335 308.315 462.525 299.6C462.525 299.18 462.245 297.01 462.14 296.38C479.22 285.18 477.19 284.69 461.895 294.21C460.67 280.63 461.02 280.21 497.7 259.21C502.358 265.465 507.372 271.448 512.715 277.13C512.715 277.13 560.945 283.36 589.96 294.63C615.65 306.25 639.45 324.695 653.975 349.58C668.815 374.99 683.2 436.625 678.475 495.425C646.275 455.84 591.5 446.285 548.205 457.835Z" fill="#0A705F"/>
</g>
</svg>
